<svg width="24" height="24" viewBox="0 0 24 24" fill="none" xmlns="http://www.w3.org/2000/svg">
<path d="M4.26153 19.3128C5.39487 18.4974 6.59743 17.8526 7.86923 17.3782C9.14103 16.9038 10.518 16.6667 12 16.6667C13.482 16.6667 14.859 16.9038 16.1308 17.3782C17.4026 17.8526 18.6051 18.4974 19.7385 19.3128C20.6188 18.4017 21.3269 17.3256 21.8628 16.0846C22.3987 14.8436 22.6667 13.482 22.6667 12C22.6667 9.04445 21.6278 6.52778 19.55 4.45C17.4722 2.37222 14.9556 1.33333 12 1.33333C9.04445 1.33333 6.52778 2.37222 4.45 4.45C2.37222 6.52778 1.33333 9.04445 1.33333 12C1.33333 13.482 1.60128 14.8436 2.13717 16.0846C2.67308 17.3256 3.3812 18.4017 4.26153 19.3128ZM12.0008 12.6667C10.8772 12.6667 9.92948 12.281 9.1577 11.5098C8.3859 10.7385 8 9.79103 8 8.66743C8 7.54383 8.38563 6.59615 9.1569 5.82437C9.92819 5.05257 10.8756 4.66667 11.9992 4.66667C13.1228 4.66667 14.0705 5.05231 14.8423 5.8236C15.6141 6.59487 16 7.5423 16 8.6659C16 9.7895 15.6144 10.7372 14.8431 11.509C14.0718 12.2808 13.1244 12.6667 12.0008 12.6667ZM12 24C10.3265 24 8.75982 23.6885 7.3 23.0654C5.84018 22.4423 4.57009 21.5906 3.48973 20.5103C2.4094 19.4299 1.55769 18.1598 0.9346 16.7C0.311533 15.2402 0 13.6735 0 12C0 10.3265 0.311533 8.75982 0.9346 7.3C1.55769 5.84018 2.4094 4.57009 3.48973 3.48973C4.57009 2.4094 5.84018 1.55769 7.3 0.934601C8.75982 0.311534 10.3265 0 12 0C13.6735 0 15.2402 0.311534 16.7 0.934601C18.1598 1.55769 19.4299 2.4094 20.5103 3.48973C21.5906 4.57009 22.4423 5.84018 23.0654 7.3C23.6885 8.75982 24 10.3265 24 12C24 13.6735 23.6885 15.2402 23.0654 16.7C22.4423 18.1598 21.5906 19.4299 20.5103 20.5103C19.4299 21.5906 18.1598 22.4423 16.7 23.0654C15.2402 23.6885 13.6735 24 12 24ZM12 22.6667C13.2291 22.6667 14.4385 22.4517 15.6282 22.0218C16.818 21.5919 17.8462 21.0034 18.7128 20.2564C17.8462 19.5607 16.8436 19.0107 15.7051 18.6064C14.5667 18.2021 13.3316 18 12 18C10.6684 18 9.42907 18.1979 8.28207 18.5936C7.13505 18.9893 6.13674 19.5436 5.28717 20.2564C6.15383 21.0034 7.18204 21.5919 8.3718 22.0218C9.56153 22.4517 10.7709 22.6667 12 22.6667ZM12 11.3333C12.7487 11.3333 13.3803 11.0761 13.8949 10.5615C14.4094 10.047 14.6667 9.41538 14.6667 8.66667C14.6667 7.91796 14.4094 7.28633 13.8949 6.7718C13.3803 6.25727 12.7487 6 12 6C11.2513 6 10.6197 6.25727 10.1051 6.7718C9.5906 7.28633 9.33333 7.91796 9.33333 8.66667C9.33333 9.41538 9.5906 10.047 10.1051 10.5615C10.6197 11.0761 11.2513 11.3333 12 11.3333Z" fill="#2EA1D9"/>
</svg>
