<svg width="18" height="19" viewBox="0 0 18 19" fill="none" xmlns="http://www.w3.org/2000/svg">
<g id="Icon">
<mask id="mask0_1448_16036" style="mask-type:alpha" maskUnits="userSpaceOnUse" x="0" y="0" width="18" height="19">
<rect id="Bounding box" y="0.75" width="17.5" height="17.5" fill="white"/>
</mask>
<g mask="url(#mask0_1448_16036)">
<path id="add_a_photo" d="M2.63619 15.3333C2.30059 15.3333 2.02038 15.2208 1.79555 14.996C1.57073 14.7712 1.45831 14.491 1.45831 14.1554V6.3028C1.45831 5.9672 1.57073 5.68698 1.79555 5.46216C2.02038 5.23733 2.30059 5.12492 2.63619 5.12492H4.79285L6.14181 3.66659H9.92786V4.39575H6.45732L5.11257 5.85408H2.63619C2.50532 5.85408 2.39781 5.89615 2.31368 5.98029C2.22955 6.06442 2.18748 6.17192 2.18748 6.3028V14.1554C2.18748 14.2862 2.22955 14.3938 2.31368 14.4779C2.39781 14.562 2.50532 14.6041 2.63619 14.6041H13.4054C13.5363 14.6041 13.6438 14.562 13.7279 14.4779C13.8121 14.3938 13.8541 14.2862 13.8541 14.1554V8.32204H14.5833V14.1554C14.5833 14.491 14.4709 14.7712 14.2461 14.996C14.0212 15.2208 13.741 15.3333 13.4054 15.3333H2.63619ZM13.8541 5.85408V4.39575H12.3958V3.66659H13.8541V2.20825H14.5833V3.66659H16.0416V4.39575H14.5833V5.85408H13.8541ZM8.02081 12.9494C8.78269 12.9494 9.42656 12.6865 9.95241 12.1607C10.4782 11.6348 10.7412 10.991 10.7412 10.2291C10.7412 9.4672 10.4782 8.82334 9.95241 8.29749C9.42656 7.77165 8.78269 7.50873 8.02081 7.50873C7.25893 7.50873 6.61506 7.77165 6.08921 8.29749C5.56337 8.82334 5.30046 9.4672 5.30046 10.2291C5.30046 10.991 5.56337 11.6348 6.08921 12.1607C6.61506 12.6865 7.25893 12.9494 8.02081 12.9494ZM8.02081 12.2203C7.45431 12.2203 6.98082 12.03 6.60034 11.6496C6.21986 11.2691 6.02962 10.7956 6.02962 10.2291C6.02962 9.66258 6.21986 9.18909 6.60034 8.80861C6.98082 8.42813 7.45431 8.2379 8.02081 8.2379C8.58731 8.2379 9.0608 8.42813 9.44128 8.80861C9.82176 9.18909 10.012 9.66258 10.012 10.2291C10.012 10.7956 9.82176 11.2691 9.44128 11.6496C9.0608 12.03 8.58731 12.2203 8.02081 12.2203Z" fill="white"/>
</g>
</g>
</svg>
