<svg width="92" height="105" viewBox="0 0 92 105" fill="none" xmlns="http://www.w3.org/2000/svg">
<rect x="2" y="2" width="88" height="88" rx="44" fill="#2EA1D9"/>
<rect x="2" y="2" width="88" height="88" rx="44" stroke="white" stroke-width="4"/>
<path d="M75.4264 18.5552C76.5279 24.0564 71.6792 27.2977 66.0692 28.0439C65.6468 28.0995 65.2194 28.1425 64.7894 28.1703C64.3746 28.1981 63.956 28.2108 63.5387 28.2108C62.3398 26.4744 62.5206 24.5775 63.6108 22.9182C65.5495 19.9665 70.3665 17.7673 75.4264 18.5552Z" fill="#EE9BA0"/>
<path d="M75.4264 18.5553C70.3665 17.7674 65.5495 19.9667 63.6108 22.9183C62.5206 24.5776 62.3398 26.4745 63.5387 28.2109C63.956 28.2109 64.3746 28.1982 64.7894 28.1704C65.0234 31.6849 64.816 36.5715 62.6256 40.765C59.187 36.2654 51.9064 32.8218 43.2689 32.1654C37.3124 31.7127 31.7935 32.6688 27.6024 34.5961C28.1083 30.7478 29.0644 27.4837 30.3518 24.7546C30.826 24.8317 31.3521 24.8735 31.9136 24.8735C31.9933 24.8735 32.0742 24.8722 32.1564 24.871C32.1792 24.8697 32.202 24.8697 32.2247 24.8697C32.2943 24.8672 32.3651 24.8646 32.4372 24.8621C32.5257 24.857 32.6155 24.852 32.7066 24.8469C32.7951 24.8406 32.8836 24.833 32.9721 24.8254C32.9861 24.8242 33 24.8229 33.0139 24.8229C33.0733 24.8166 33.1328 24.8103 33.1909 24.8039C33.3111 24.7913 33.4325 24.7761 33.5539 24.7597C33.6753 24.7432 33.798 24.7243 33.9206 24.704C33.975 24.6964 34.0294 24.6851 34.0838 24.6749C34.1596 24.6623 34.2343 24.6484 34.3101 24.6332C34.3671 24.6218 34.4227 24.6092 34.4796 24.5965C34.5302 24.5864 34.5808 24.575 34.6314 24.5636C34.7376 24.5396 34.8451 24.5143 34.9526 24.4865C35.012 24.4713 35.0702 24.4562 35.1296 24.4397C35.1752 24.4283 35.2194 24.4157 35.265 24.403C35.3535 24.3777 35.442 24.3512 35.5305 24.3246C35.5482 24.3183 35.5659 24.3132 35.5836 24.3082C35.6747 24.2791 35.7645 24.25 35.8555 24.2184C35.9061 24.202 35.9554 24.1843 36.006 24.1665C36.044 24.1539 36.0832 24.14 36.1224 24.1235C36.13 24.1223 36.1363 24.1185 36.1439 24.116C36.1641 24.1084 36.1843 24.102 36.2046 24.0945C36.2375 24.0831 36.2703 24.0704 36.302 24.0565C36.3589 24.035 36.4145 24.0123 36.4702 23.9895C36.5245 23.9693 36.5777 23.9465 36.6308 23.925C36.7762 23.863 36.9204 23.7985 37.0645 23.7315C37.1139 23.7087 37.1632 23.6847 37.2125 23.6607C37.2226 23.6556 37.234 23.6506 37.2441 23.6442C37.2555 23.6392 37.2656 23.6341 37.277 23.6291C37.3225 23.6063 37.3681 23.5823 37.4136 23.5595C37.4149 23.5583 37.4149 23.5583 37.4161 23.5583C37.4338 23.5494 37.4503 23.5405 37.468 23.5304C37.5223 23.5026 37.5767 23.4723 37.6311 23.4432C37.6905 23.4116 37.7487 23.3787 37.8069 23.3445C37.8271 23.3344 37.8486 23.3218 37.8689 23.3104C37.9346 23.2737 37.9991 23.2345 38.0636 23.194C38.1041 23.1713 38.1445 23.1447 38.185 23.1194C38.1913 23.1156 38.1989 23.1118 38.2053 23.108C38.228 23.0929 38.252 23.0777 38.2748 23.0638C38.3165 23.036 38.3595 23.0081 38.4013 22.9803C38.4443 22.9512 38.4885 22.9221 38.5315 22.8905C38.5404 22.8867 38.548 22.8804 38.5556 22.8741C38.6036 22.8412 38.6517 22.8083 38.6985 22.7754C38.7705 22.7223 38.8401 22.6705 38.9109 22.6174C38.9286 22.6034 38.9463 22.5908 38.9628 22.5781C38.9704 22.5718 38.9767 22.5668 38.9843 22.5617C39.0551 22.5073 39.1259 22.4517 39.1955 22.3922C39.2511 22.3492 39.3055 22.3025 39.3599 22.2544C39.3763 22.2418 39.3915 22.2278 39.4079 22.2139C39.4181 22.2051 39.4269 22.1975 39.437 22.1874C39.4408 22.1848 39.4446 22.181 39.4484 22.1785C39.4712 22.1596 39.4927 22.1393 39.5142 22.1191C39.5761 22.0647 39.6381 22.0091 39.6988 21.9496C39.7026 21.9471 39.7051 21.9446 39.7089 21.9408C39.7127 21.9382 39.7178 21.9344 39.7216 21.9294C39.7709 21.8826 39.8202 21.8345 39.8683 21.7852C39.8834 21.77 39.8986 21.7561 39.9125 21.741C39.9353 21.7182 39.9581 21.6954 39.9796 21.6714C39.9859 21.6663 39.9922 21.6613 39.996 21.655C40.0276 21.6233 40.0592 21.5905 40.0896 21.5588C40.0972 21.5513 40.1035 21.5437 40.1098 21.5361C40.1515 21.4906 40.1933 21.4476 40.2337 21.4008C40.2337 21.3995 40.235 21.3982 40.2363 21.397C40.2439 21.3881 40.2515 21.3805 40.259 21.3717C40.2767 21.3527 40.2944 21.3325 40.3109 21.3135C40.3374 21.2832 40.3627 21.2528 40.3868 21.2237C40.431 21.1731 40.4728 21.1238 40.5145 21.0707C40.5449 21.034 40.5752 20.9973 40.6043 20.9581C40.6308 20.9265 40.6549 20.8949 40.6789 20.8633C40.7598 20.7596 40.837 20.6521 40.9116 20.5433C40.9432 20.5016 40.9723 20.4599 41.0001 20.4156C41.0027 20.4143 41.0039 20.4118 41.0039 20.4093C41.0292 20.3751 41.0532 20.3385 41.076 20.3018C41.0811 20.2955 41.0849 20.2879 41.0887 20.2815C41.1013 20.2638 41.1127 20.2461 41.1228 20.2297C41.1392 20.2031 41.1544 20.1791 41.1696 20.1538C41.1759 20.1462 41.181 20.1374 41.1848 20.1298C41.2341 20.0539 41.2796 19.9768 41.3251 19.8984C41.3681 19.8237 41.4099 19.7504 41.4516 19.6745C41.4807 19.6214 41.5085 19.5683 41.5376 19.5139C41.5781 19.4355 41.6173 19.3571 41.6565 19.2774C41.6704 19.2471 41.6856 19.218 41.7007 19.1876C41.7159 19.1547 41.7311 19.1206 41.745 19.0877C41.7728 19.0295 41.7994 18.9701 41.8247 18.9107C41.8323 18.8955 41.8386 18.8803 41.8436 18.8651C41.8614 18.8272 41.8778 18.7893 41.8917 18.7526C41.8955 18.745 41.8993 18.7362 41.9018 18.7286C41.9119 18.7071 41.9208 18.6856 41.9284 18.6653C41.9296 18.6615 41.9296 18.659 41.9309 18.6577C41.9524 18.6059 41.9726 18.5553 41.9916 18.5022C41.9954 18.4971 41.9967 18.4921 41.9979 18.487C42.0169 18.4402 42.0346 18.3934 42.051 18.3454C42.0637 18.3138 42.0751 18.2809 42.0852 18.2493C42.1054 18.1961 42.1231 18.1443 42.1408 18.0887C42.1434 18.0811 42.1472 18.0722 42.1497 18.0621C42.1649 18.0216 42.1775 17.9812 42.1902 17.9394C42.1902 17.9382 42.1914 17.9382 42.1914 17.9356C42.1927 17.9318 42.194 17.928 42.1952 17.9242V17.923C42.1977 17.9167 42.199 17.9103 42.2015 17.904C42.2117 17.8724 42.2218 17.842 42.2306 17.8104C42.2445 17.7662 42.2572 17.7206 42.2698 17.6751C42.2939 17.5992 42.3154 17.5221 42.3343 17.4449C42.3381 17.4348 42.3419 17.4247 42.3432 17.4133C42.3609 17.3539 42.3761 17.2919 42.39 17.23C42.3925 17.2249 42.3938 17.2186 42.3938 17.2135C42.395 17.2097 42.395 17.2072 42.3963 17.2034C42.4026 17.1794 42.4089 17.1541 42.414 17.1313C42.4241 17.0921 42.4342 17.0504 42.4418 17.0112C42.4671 16.9037 42.4899 16.7949 42.5101 16.6836C42.5177 16.652 42.5228 16.6191 42.5291 16.5862C42.5291 16.5837 42.5304 16.5812 42.5304 16.5787C42.5379 16.5496 42.543 16.5205 42.5468 16.4914C42.5531 16.4598 42.5594 16.4282 42.5645 16.3953C42.5696 16.3725 42.5721 16.3498 42.5759 16.3257C42.5784 16.3106 42.5809 16.2941 42.5835 16.2789C42.5898 16.2397 42.5961 16.2018 42.6012 16.1639C42.6126 16.0981 42.6214 16.0336 42.6303 15.9653C42.6378 15.916 42.6442 15.8679 42.6492 15.8161C42.6593 15.7427 42.6682 15.6694 42.6758 15.5935C42.677 15.5821 42.6783 15.5695 42.6796 15.5568C42.6808 15.548 42.6808 15.5391 42.6821 15.529C42.6846 15.5088 42.6872 15.486 42.6884 15.4645C42.6973 15.3772 42.7049 15.29 42.7112 15.2027V15.2015C42.715 15.1446 42.72 15.0889 42.7226 15.0333C42.7226 15.0231 42.7238 15.0143 42.7238 15.0054C42.7251 14.9827 42.7276 14.9586 42.7289 14.9346C42.7327 14.8942 42.734 14.8524 42.7352 14.8094C42.7365 14.8018 42.7365 14.793 42.7365 14.7854C42.7378 14.7791 42.7377 14.774 42.7377 14.769C42.7428 14.683 42.7466 14.597 42.7479 14.511C42.7491 14.5046 42.7491 14.4996 42.7479 14.4933C42.7479 14.492 42.7479 14.4907 42.7479 14.4895V14.4844C42.7504 14.4541 42.7504 14.4224 42.7504 14.3908C42.7517 14.3845 42.7517 14.3769 42.7517 14.3693C42.7542 14.2631 42.7555 14.1556 42.7555 14.0468C46.4343 13.1793 50.3244 13.5486 53.8932 14.9675C56.2189 15.892 58.408 17.2616 60.3138 19.0245C60.9816 18.3542 62.1058 17.4879 63.5791 16.8367C66.4625 15.5619 70.6814 15.1091 75.4264 18.5553ZM55.4032 28.2109C55.4032 26.3013 54.4901 24.7546 53.3646 24.7546C52.2378 24.7546 51.326 26.3013 51.326 28.2109C51.326 30.1205 52.2378 31.6672 53.3646 31.6672C54.4901 31.6672 55.4032 30.1205 55.4032 28.2109ZM39.4889 28.2741C39.4889 26.7034 38.6681 25.4287 37.6577 25.4287C36.6459 25.4287 35.8252 26.7034 35.8252 28.2741C35.8252 29.8461 36.6459 31.1196 37.6577 31.1196C38.6681 31.1196 39.4889 29.8461 39.4889 28.2741Z" fill="#FFFBEA"/>
<path d="M68.2811 57.0056C71.2316 62.0465 70.7472 66.9432 70.7472 69.5648H68.3026C68.2912 69.5648 70.0731 65.4332 68.2811 57.0056Z" fill="#DDB590"/>
<path d="M68.2811 57.0057C70.0731 65.4333 68.2912 69.5649 68.3026 69.5649H59.6183C59.9534 67.7046 59.8408 66.7625 57.6745 63.6666C56.7007 66.9509 56.1696 67.8045 54.6646 69.5649H29.3717C29.3717 68.9048 28.905 67.0381 29.6739 64.151C29.6828 64.1547 29.6916 64.1573 29.7005 64.1611C29.8851 63.482 30.1406 62.7459 30.4846 61.9581C30.4745 61.9555 30.4631 61.953 30.453 61.9505C30.9512 60.8123 31.6341 59.5666 32.5712 58.2172C32.5965 58.1793 32.6231 58.1414 32.6484 58.1059C41.0393 62.4475 48.7764 62.493 54.4964 60.763C60.6414 58.9065 64.4593 55.0025 64.257 52.1836C66.0376 53.7593 67.3364 55.3895 68.2811 57.0057Z" fill="#FFFBEA"/>
<path d="M66.0692 28.0439C67.7816 33.296 67.6943 39.7508 64.735 47.025C64.8754 44.8359 64.1065 42.7025 62.6256 40.765C64.816 36.5715 65.0234 31.6849 64.7894 28.1704C65.2194 28.1426 65.6468 28.0996 66.0692 28.0439Z" fill="#DDB590"/>
<path d="M62.6256 40.7651C64.1065 42.7025 64.8754 44.836 64.735 47.0251C64.7338 47.0567 64.7312 47.0883 64.7287 47.1199C64.6149 48.616 64.085 50.0223 63.2073 51.3059C63.1719 51.3577 63.1365 51.4083 63.0998 51.4589C63.0657 51.507 63.0315 51.555 62.9949 51.6031C62.9658 51.6423 62.9367 51.6828 62.9063 51.722C62.8545 51.7915 62.8014 51.8598 62.747 51.9268C62.6926 51.9964 62.6382 52.0634 62.5813 52.1317C62.5333 52.1873 62.4852 52.2443 62.4359 52.3012C62.3322 52.42 62.226 52.5377 62.1159 52.654C62.0767 52.6957 62.0363 52.7375 61.9958 52.7792C61.949 52.8273 61.9009 52.8766 61.8529 52.9246C61.7922 52.9853 61.729 53.0473 61.6657 53.1068C61.6038 53.1675 61.5405 53.2269 61.476 53.2863C61.4052 53.3508 61.3331 53.4153 61.2598 53.4798C61.1902 53.5418 61.1207 53.6025 61.0486 53.6645C60.9803 53.7214 60.9107 53.7795 60.8399 53.8377C60.6881 53.9604 60.5326 54.0831 60.372 54.2032C60.2986 54.2588 60.2253 54.3132 60.1494 54.3676C60.0318 54.4523 59.9117 54.5371 59.7903 54.6205C59.7295 54.6623 59.6688 54.704 59.6069 54.7445C59.5462 54.7875 59.4842 54.8267 59.421 54.8671C59.3666 54.9025 59.311 54.938 59.2553 54.9734C59.2136 54.9999 59.1718 55.0265 59.1288 55.053C59.0568 55.0973 58.9834 55.1428 58.9101 55.1858C58.8493 55.2225 58.7887 55.2604 58.7267 55.2946C58.6824 55.3211 58.6382 55.3477 58.5939 55.3717C58.4763 55.44 58.3561 55.5071 58.236 55.5728C58.1171 55.6398 57.9957 55.7043 57.8731 55.7676C57.806 55.8017 57.7377 55.8384 57.6694 55.8713C57.6011 55.9067 57.5316 55.9408 57.462 55.975C57.4557 55.9788 57.4494 55.9813 57.4431 55.9838C57.3798 56.0154 57.3166 56.0458 57.2521 56.0774C57.1825 56.1116 57.1117 56.1457 57.0409 56.1786C56.9701 56.2115 56.8993 56.2443 56.8272 56.276C56.7551 56.3088 56.683 56.3417 56.6097 56.3733C56.5553 56.3986 56.5009 56.4227 56.4465 56.4441C56.3909 56.4682 56.3365 56.4909 56.2809 56.515C56.2657 56.5213 56.2492 56.5289 56.2341 56.5352C56.1835 56.558 56.1316 56.5782 56.0785 56.5997C55.9609 56.6478 55.842 56.6958 55.7219 56.7426C55.5714 56.802 55.4196 56.8602 55.2653 56.9171C55.1996 56.9424 55.1338 56.9677 55.0668 56.9917C55.0643 56.9917 55.063 56.9917 55.0605 56.993C54.9833 57.0208 54.9049 57.0487 54.8265 57.0765C54.7013 57.1195 54.5736 57.1637 54.4459 57.2055C54.375 57.2295 54.3042 57.2535 54.2321 57.2763C54.1803 57.2927 54.1272 57.3104 54.074 57.3256C54.0601 57.3319 54.0462 57.3357 54.0323 57.3395C53.9198 57.3749 53.8072 57.4116 53.6934 57.4432C53.6049 57.471 53.5151 57.4976 53.4253 57.5229C53.3608 57.5419 53.2963 57.5608 53.2318 57.5785C53.0914 57.619 52.9485 57.6569 52.8056 57.6962C52.731 57.7151 52.6551 57.7354 52.5792 57.7543C52.5046 57.7746 52.4287 57.7935 52.3529 57.8112C52.1834 57.8542 52.0127 57.8947 51.8407 57.9339C51.7054 57.9655 51.57 57.9959 51.4335 58.025C51.417 58.0288 51.4006 58.0325 51.3841 58.0351C51.3222 58.049 51.2589 58.0616 51.1957 58.0755C51.0629 58.1021 50.9301 58.1299 50.7961 58.1552C50.6772 58.178 50.5583 58.202 50.4382 58.2222C50.2953 58.2488 50.1536 58.2728 50.0095 58.2969C49.8779 58.3196 49.7452 58.3411 49.6124 58.3614C49.4884 58.3803 49.3645 58.3993 49.2393 58.417C49.147 58.4309 49.0521 58.4436 48.9585 58.4562C48.9472 58.4575 48.9371 58.4587 48.9257 58.46C48.8662 58.4701 48.8055 58.4777 48.7461 58.4853C48.6639 58.4954 48.5804 58.5055 48.4982 58.5169C48.4641 58.5194 48.4312 58.5232 48.397 58.527C48.2655 58.5435 48.134 58.5586 48.0012 58.5726L47.9557 58.5764C47.8406 58.589 47.7242 58.6016 47.6079 58.613C47.4283 58.6295 47.2475 58.6446 47.0654 58.6598C46.9946 58.6649 46.9225 58.6712 46.8516 58.6763C46.8264 58.6775 46.8023 58.68 46.777 58.6813H46.7694C46.7492 58.6838 46.729 58.6838 46.7087 58.6851C46.6354 58.6914 46.5608 58.6965 46.4874 58.7003C46.476 58.7015 46.4647 58.7016 46.4533 58.7028C46.3559 58.7091 46.2598 58.7155 46.1624 58.7193C46.0714 58.7243 45.9803 58.7306 45.888 58.7332C45.7463 58.7408 45.6034 58.7471 45.4605 58.7509C45.3429 58.7547 45.224 58.7585 45.1052 58.7623C45.0053 58.7648 44.9041 58.766 44.8029 58.7673C44.7245 58.7711 44.6461 58.7711 44.5664 58.7711C43.4826 58.7838 42.3786 58.7483 41.2568 58.6623C36.1856 58.2779 31.5823 56.931 27.949 54.9734C31.5722 56.8918 36.1553 58.2109 41.1987 58.589C44.5614 58.8419 47.7837 58.6497 50.7063 58.092C56.3883 57.0107 60.9385 54.5472 63.1782 51.2743V51.273C64.0369 50.021 64.5554 48.6476 64.6693 47.1907L64.6705 47.1869V47.1806C64.816 45.2862 64.3126 43.1704 62.5725 40.8675C61.5633 51.4134 55.4968 55.3743 48.3983 56.4669C41.1038 57.5899 32.7192 55.6854 27.6113 54.7875C27.5038 54.7268 27.3963 54.6661 27.2888 54.6054C27.2471 54.5813 27.2053 54.5573 27.1649 54.5333C27.0726 54.4789 26.9815 54.4232 26.8905 54.3689C26.812 54.3208 26.7336 54.274 26.6565 54.226H26.6552C26.5224 54.1412 26.3922 54.0603 26.2619 53.9743C26.2 53.9338 26.138 53.8934 26.076 53.8542C26.014 53.8124 25.9533 53.772 25.8926 53.7302C25.8876 53.7277 25.8825 53.7226 25.8787 53.7201C25.7523 53.6341 25.6271 53.5468 25.5031 53.4596C25.2578 53.2851 25.0175 53.1068 24.7848 52.9246C24.7266 52.8816 24.6697 52.8348 24.6128 52.7881C24.5546 52.7425 24.4977 52.697 24.4421 52.6502C24.3852 52.6047 24.327 52.5579 24.2701 52.5098C24.2132 52.463 24.1575 52.415 24.1019 52.3682C24.0943 52.3606 24.088 52.3543 24.0804 52.348C24.0361 52.3088 23.9906 52.2696 23.9464 52.2304C23.892 52.1836 23.8389 52.1355 23.787 52.0887C23.7339 52.0419 23.682 51.9939 23.6302 51.9458C23.5783 51.8977 23.5265 51.8497 23.4759 51.8016C23.3735 51.7055 23.2736 51.6094 23.1749 51.5095C23.1269 51.4614 23.0775 51.4121 23.0295 51.3641C22.7588 51.0871 22.5021 50.8038 22.2631 50.5155C22.2252 50.4712 22.1872 50.4244 22.1506 50.3776C22.105 50.3233 22.0608 50.2676 22.0178 50.2132C21.9735 50.1576 21.9305 50.1019 21.8888 50.0463C21.804 49.935 21.7206 49.8237 21.6409 49.7099C21.6333 49.701 21.627 49.6909 21.6207 49.6821C21.5562 49.5898 21.4929 49.4987 21.431 49.4051C21.4234 49.3937 21.4158 49.3824 21.4082 49.3722C21.3703 49.3141 21.3336 49.2572 21.2969 49.199C21.2602 49.1433 21.2248 49.0839 21.1894 49.027C21.1641 48.9853 21.1388 48.9435 21.1148 48.9018C21.0946 48.8702 21.0756 48.8386 21.0579 48.8057C21.0326 48.764 21.0086 48.7222 20.9858 48.6805C20.9529 48.6223 20.9213 48.5641 20.8897 48.506C20.8733 48.4769 20.8581 48.4478 20.8442 48.4187C20.8416 48.4162 20.8404 48.4124 20.8391 48.4098C20.8214 48.3782 20.805 48.3466 20.7898 48.315C20.7847 48.3061 20.7797 48.2973 20.7759 48.2897C20.7519 48.2442 20.7304 48.1999 20.7089 48.1557C20.6494 48.0368 20.5925 47.9154 20.5394 47.7952C20.5141 47.7371 20.4888 47.6814 20.4648 47.622C20.4395 47.5625 20.4155 47.5031 20.3927 47.4437C20.3687 47.3842 20.3446 47.3248 20.3231 47.2641C20.2776 47.1439 20.2346 47.0225 20.1954 46.8999C20.1752 46.8354 20.1537 46.7721 20.136 46.7051C20.1334 46.6963 20.1296 46.6861 20.1271 46.6773C20.1157 46.6419 20.1056 46.6065 20.0955 46.5685C20.0778 46.5091 20.0614 46.4509 20.0462 46.3927C20.0437 46.3801 20.0399 46.3687 20.0373 46.3561C20.0247 46.3067 20.012 46.2587 20.0007 46.2106C19.9931 46.179 19.9867 46.1474 19.9792 46.1158C19.969 46.0728 19.9602 46.031 19.9513 45.9893C19.9311 45.8945 19.9121 45.7958 19.8957 45.6984C19.8957 45.6972 19.8957 45.6972 19.8957 45.6972C19.8856 45.6415 19.8767 45.5872 19.8691 45.5328C19.8615 45.4847 19.854 45.4367 19.8476 45.3886C19.8438 45.3658 19.8413 45.3443 19.8388 45.3216C19.8337 45.2786 19.8287 45.2318 19.8236 45.1863C19.8185 45.1458 19.8147 45.1041 19.811 45.0623C19.8059 45.0181 19.8021 44.9738 19.7996 44.9308C19.7996 44.9194 19.7983 44.9106 19.7983 44.9005C19.7958 44.8676 19.7932 44.8334 19.7907 44.7993C19.7907 44.7854 19.7895 44.7727 19.7882 44.7588V44.75C19.7857 44.7019 19.7831 44.6538 19.7819 44.6033C19.7793 44.5666 19.7781 44.5274 19.7781 44.4882C19.7768 44.4338 19.7755 44.3794 19.7755 44.3263C19.7755 44.1202 19.7831 43.914 19.7983 43.7079C20.0866 39.9038 23.0662 36.6815 27.6024 34.5974V34.5961C31.7935 32.6688 37.3124 31.7127 43.2689 32.1655C51.9064 32.8218 59.187 36.2654 62.6256 40.7651ZM56.3213 47.5549L56.7007 47.2514C56.5869 47.34 56.4592 47.4411 56.3213 47.5549L54.8531 48.7298C52.6956 50.3663 49.1179 52.5642 43.599 53.0852L39.9024 53.1738C40.7055 53.2079 41.4769 53.2079 42.2142 53.1788C42.6897 53.1599 43.15 53.1282 43.599 53.0852C46.8782 54.9696 56.2164 56.0142 54.8531 48.7298C55.4462 48.2796 55.9318 47.8724 56.3213 47.5549ZM45.1545 42.7531C45.2898 41.7806 44.3261 40.8435 43.0008 40.6576C41.6754 40.4729 40.4917 41.1128 40.3564 42.0853C40.2198 43.0579 41.1848 43.995 42.5101 44.1796C43.8355 44.3642 45.0192 43.7256 45.1545 42.7531ZM32.4473 42.7569C32.4473 41.7742 31.3622 40.9788 30.0242 40.9788C28.6862 40.9788 27.6024 41.7742 27.6024 42.7569C27.6024 43.7382 28.6862 44.535 30.0242 44.535C31.3622 44.535 32.4473 43.7382 32.4473 42.7569Z" fill="#F8ACB1"/>
<path d="M62.5725 40.8674C64.3126 43.1704 64.8159 45.2861 64.6705 47.1806V47.1869L64.6693 47.1907C64.5554 48.6475 64.0369 50.021 63.1782 51.273V51.2742C60.9385 54.5471 56.3883 57.0107 50.7063 58.0919C47.7837 58.6496 44.5614 58.8419 41.1987 58.5889C36.1552 58.2108 31.5722 56.8918 27.9489 54.9733L27.8541 54.9227C27.7732 54.8785 27.6922 54.8342 27.6113 54.7874C32.7192 55.6853 41.1038 57.5899 48.3983 56.4669C55.4968 55.3742 61.5633 51.4133 62.5725 40.8674Z" fill="#EF7180"/>
<path d="M27.6025 54.7875C27.6859 54.8317 27.7694 54.8785 27.8541 54.9228L27.949 54.9734C31.5823 56.9311 36.1856 58.2779 41.2569 58.6624C42.3786 58.7484 43.4826 58.7838 44.5664 58.7711C44.6461 58.7711 44.7245 58.7711 44.8029 58.7673C44.9041 58.7661 45.0053 58.7648 45.1052 58.7623C45.2241 58.7585 45.3429 58.7547 45.4605 58.7509C45.6034 58.7471 45.7464 58.7408 45.888 58.7332C45.9803 58.7307 46.0714 58.7243 46.1624 58.7193C46.2598 58.7155 46.3559 58.7092 46.4533 58.7028C46.4647 58.7016 46.4761 58.7016 46.4874 58.7003C46.5608 58.6965 46.6354 58.6914 46.7087 58.6851C46.729 58.6839 46.7492 58.6839 46.7694 58.6813H46.777C46.8023 58.6801 46.8264 58.6775 46.8517 58.6763C46.9225 58.6712 46.9946 58.6649 47.0654 58.6598C47.2475 58.6447 47.4283 58.6295 47.6079 58.613C47.7243 58.6017 47.8406 58.589 47.9557 58.5764L48.0012 58.5726C48.134 58.5587 48.2655 58.5435 48.3971 58.527C48.4312 58.5232 48.4641 58.5195 48.4982 58.5169C48.5804 58.5055 48.6639 58.4954 48.7461 58.4853C48.8055 58.4777 48.8662 58.4701 48.9257 58.46C48.9371 58.4587 48.9472 58.4575 48.9586 58.4562C49.0521 58.4436 49.147 58.4309 49.2393 58.417C49.3645 58.3993 49.4884 58.3803 49.6124 58.3614C49.7452 58.3411 49.878 58.3196 50.0095 58.2969C50.1536 58.2728 50.2953 58.2488 50.4382 58.2223C50.5583 58.202 50.6772 58.178 50.7961 58.1552C50.9301 58.1299 51.0629 58.1021 51.1957 58.0756C51.2589 58.0617 51.3222 58.049 51.3842 58.0351C51.4006 58.0326 51.417 58.0288 51.4335 58.025C51.5701 57.9959 51.7054 57.9655 51.8407 57.9339C52.0127 57.8947 52.1834 57.8542 52.3529 57.8112C52.4287 57.7935 52.5046 57.7746 52.5792 57.7543C52.6551 57.7354 52.731 57.7151 52.8056 57.6962C52.9485 57.657 53.0914 57.619 53.2318 57.5786C53.2963 57.5609 53.3608 57.5419 53.4253 57.5229C53.5151 57.4976 53.6049 57.4711 53.6934 57.4432C53.8072 57.4116 53.9198 57.3749 54.0323 57.3395C54.0462 57.3357 54.0601 57.332 54.0741 57.3256C54.1272 57.3105 54.1803 57.2927 54.2321 57.2763C54.3042 57.2535 54.375 57.2295 54.4459 57.2055C54.5736 57.1638 54.7013 57.1195 54.8265 57.0765C54.9049 57.0487 54.9833 57.0208 55.0605 56.993C55.063 56.9918 55.0643 56.9918 55.0668 56.9918C55.1338 56.9677 55.1996 56.9424 55.2654 56.9171C55.4196 56.8602 55.5714 56.8021 55.7219 56.7426C55.842 56.6958 55.9609 56.6478 56.0785 56.5997C56.1316 56.5782 56.1835 56.558 56.2341 56.5352C56.2493 56.5289 56.2657 56.5213 56.2809 56.515C56.3365 56.4935 56.3922 56.4682 56.4465 56.4442C56.5009 56.4227 56.5553 56.3986 56.6097 56.3733C56.683 56.3417 56.7551 56.3089 56.8272 56.276C56.8993 56.2444 56.9701 56.2115 57.0409 56.1786C57.1117 56.1457 57.1826 56.1116 57.2521 56.0774C57.3166 56.0471 57.3798 56.018 57.4431 55.9838C57.4494 55.9813 57.4557 55.9788 57.462 55.975C57.5316 55.9408 57.6012 55.9067 57.6694 55.8713C57.7377 55.8384 57.806 55.8017 57.8731 55.7676C57.9957 55.7043 58.1171 55.6399 58.236 55.5728C58.3562 55.5071 58.4763 55.44 58.5939 55.3717C58.6382 55.3477 58.6824 55.3212 58.7267 55.2946C58.7887 55.2605 58.8494 55.2225 58.9101 55.1858C58.9834 55.1428 59.0568 55.0973 59.1289 55.0531C59.1719 55.0265 59.2136 54.9999 59.2553 54.9734C59.311 54.938 59.3666 54.9026 59.421 54.8672C59.4842 54.8267 59.5462 54.7875 59.6069 54.7445C59.6689 54.704 59.7296 54.6623 59.7903 54.6205C59.9117 54.5371 60.0318 54.4523 60.1494 54.3676C60.2253 54.3132 60.2986 54.2589 60.372 54.2032C60.5326 54.0831 60.6882 53.9604 60.8399 53.8377C60.9107 53.7796 60.9803 53.7214 61.0486 53.6645C61.1207 53.6025 61.1902 53.5418 61.2598 53.4798C61.3331 53.4153 61.4052 53.3508 61.476 53.2863C61.5405 53.2269 61.6038 53.1675 61.6657 53.1068C61.729 53.0473 61.7922 52.9854 61.8529 52.9247C61.901 52.8766 61.949 52.8273 61.9958 52.7792C62.0363 52.7375 62.0767 52.6958 62.116 52.654C62.226 52.5377 62.3322 52.4201 62.4359 52.3012C62.4852 52.2443 62.5333 52.1874 62.5813 52.1317C62.6382 52.0634 62.6939 51.9964 62.747 51.9268C62.8014 51.8598 62.8545 51.7915 62.9064 51.722C62.9367 51.6828 62.9658 51.6423 62.9949 51.6031C63.0316 51.555 63.0657 51.507 63.0998 51.4589C63.1365 51.4083 63.1719 51.3578 63.2073 51.3059C63.5754 51.5955 63.9244 51.8889 64.257 52.1836C64.4593 55.0025 60.6414 58.9064 54.4965 60.7629C48.7764 62.493 41.0393 62.4474 32.6484 58.1059C32.637 58.0996 32.6244 58.0933 32.613 58.0869C30.6262 57.055 28.6015 55.784 26.5579 54.2361C26.5566 54.2348 26.5553 54.2336 26.5528 54.2336L26.6552 54.226H26.6565C26.7336 54.274 26.812 54.3208 26.8905 54.3689C26.9815 54.4233 27.0726 54.4789 27.1649 54.5333C27.2054 54.5573 27.2471 54.5813 27.2888 54.6054C27.3963 54.6661 27.5038 54.7268 27.6113 54.7875C27.6075 54.7875 27.6062 54.7875 27.6025 54.7875Z" fill="#DDB590"/>
<path d="M62.6534 10C64.0635 11.9906 64.023 14.6501 63.5791 16.8367C62.1058 17.488 60.9815 18.3543 60.3138 19.0245C58.408 17.2616 56.2189 15.892 53.8932 14.9675H53.8957C58.2739 13.4778 59.6182 12.7405 62.6534 10Z" fill="#B8A794"/>
<path d="M57.6745 63.6665C59.8408 66.7624 59.9534 67.7045 59.6183 69.5648H54.6646C56.1696 67.8044 56.7007 66.9508 57.6745 63.6665Z" fill="#DDB590"/>
<path d="M56.7007 47.2515L56.3213 47.555C56.4592 47.4412 56.5869 47.34 56.7007 47.2515Z" fill="#F8ACB1"/>
<path d="M54.8531 48.7298L56.3214 47.5549C55.9318 47.8724 55.4462 48.2796 54.8531 48.7298Z" fill="#F8ACB1"/>
<path d="M54.8531 48.7297C56.2164 56.0141 46.8782 54.9695 43.599 53.0852C49.1179 52.5641 52.6956 50.3662 54.8531 48.7297Z" fill="#A84547"/>
<path d="M53.3646 24.7546C54.4901 24.7546 55.4032 26.3013 55.4032 28.2109C55.4032 30.1205 54.4901 31.6672 53.3646 31.6672C52.2378 31.6672 51.326 30.1205 51.326 28.2109C51.326 26.3013 52.2378 24.7546 53.3646 24.7546ZM54.6646 27.1575C54.6646 26.5745 54.3194 26.1028 53.8957 26.1028C53.4708 26.1028 53.1268 26.5745 53.1268 27.1575C53.1268 27.7392 53.4708 28.2109 53.8957 28.2109C54.3194 28.2109 54.6646 27.7392 54.6646 27.1575Z" fill="#201E1A"/>
<path d="M53.8957 26.1028C54.3194 26.1028 54.6646 26.5745 54.6646 27.1575C54.6646 27.7392 54.3194 28.211 53.8957 28.211C53.4708 28.211 53.1268 27.7392 53.1268 27.1575C53.1268 26.5745 53.4708 26.1028 53.8957 26.1028Z" fill="white"/>
<path d="M43.0008 40.6575C44.3262 40.8434 45.2898 41.7805 45.1545 42.753C45.0192 43.7255 43.8355 44.3641 42.5101 44.1795C41.1848 43.9949 40.2199 43.0578 40.3564 42.0853C40.4918 41.1127 41.6755 40.4728 43.0008 40.6575Z" fill="#A84547"/>
<path d="M43.599 53.0852L42.2142 53.1788C41.4769 53.2079 40.7055 53.2079 39.9024 53.1737L43.599 53.0852Z" fill="#F8ACB1"/>
<path d="M42.2142 53.1788L43.599 53.0852C43.15 53.1282 42.6897 53.1598 42.2142 53.1788Z" fill="#F8ACB1"/>
<path d="M42.7554 14.0469C42.7554 14.1556 42.7542 14.2631 42.7516 14.3694C42.7516 14.3769 42.7516 14.3845 42.7504 14.3909C42.7504 14.4225 42.7504 14.4541 42.7478 14.4844V14.4895C42.7478 14.4908 42.7478 14.492 42.7478 14.4933C42.7478 14.4996 42.7478 14.5047 42.7478 14.511C42.7466 14.597 42.7428 14.683 42.7377 14.769C42.7377 14.774 42.7377 14.7791 42.7365 14.7854C42.7365 14.793 42.7365 14.8019 42.7352 14.8095C42.7339 14.8512 42.7314 14.8929 42.7289 14.9347C42.7276 14.9587 42.7251 14.9827 42.7238 15.0055C42.7238 15.0143 42.7225 15.0232 42.7225 15.0333C42.72 15.0902 42.7162 15.1459 42.7112 15.2015V15.2028C42.7048 15.29 42.6973 15.3773 42.6884 15.4645C42.6871 15.4848 42.6846 15.5075 42.6821 15.529C42.6808 15.5392 42.6808 15.548 42.6796 15.5569C42.6783 15.5695 42.677 15.5822 42.6758 15.5935C42.6669 15.6694 42.6593 15.7428 42.6492 15.8161C42.6429 15.8667 42.6366 15.916 42.6302 15.9653C42.6214 16.0336 42.6125 16.0981 42.6011 16.1639C42.5961 16.2018 42.5898 16.2398 42.5834 16.279C42.5809 16.2942 42.5784 16.3106 42.5758 16.3258C42.5721 16.3498 42.5695 16.3726 42.5645 16.3953C42.5594 16.4282 42.5531 16.4598 42.5468 16.4914C42.5417 16.5205 42.5366 16.5496 42.5303 16.5787C42.5303 16.5812 42.5291 16.5838 42.5291 16.5863C42.5227 16.6192 42.5177 16.652 42.5101 16.6837C42.4899 16.795 42.4671 16.9037 42.4418 17.0112C42.4342 17.0504 42.4241 17.0921 42.414 17.1313C42.4127 17.1377 42.4102 17.1427 42.4089 17.1491C42.4051 17.1668 42.4013 17.1857 42.3963 17.2034C42.395 17.2072 42.395 17.2098 42.3937 17.2136C42.3925 17.2186 42.3912 17.2262 42.3899 17.23C42.376 17.292 42.3609 17.3539 42.3432 17.4134C42.3419 17.4247 42.3381 17.4349 42.3343 17.445C42.3141 17.5221 42.2926 17.5993 42.2698 17.6751C42.2572 17.7207 42.2445 17.7662 42.2306 17.8105C42.2205 17.8421 42.2116 17.8737 42.2015 17.9041C42.199 17.9104 42.1977 17.9167 42.1952 17.923V17.9243C42.1939 17.9281 42.1927 17.9319 42.1914 17.9357C42.1914 17.9382 42.1901 17.9382 42.1901 17.9395C42.1889 17.9395 42.1889 17.9407 42.1889 17.9407C42.1775 17.9825 42.1636 18.0217 42.1497 18.0621C42.1471 18.0722 42.1433 18.0811 42.1408 18.0887C42.1231 18.1443 42.1041 18.1962 42.0852 18.2493C42.075 18.2809 42.0637 18.3138 42.051 18.3454C42.0346 18.3935 42.0169 18.4403 41.9979 18.4871C41.9966 18.4921 41.9954 18.4972 41.9916 18.5022C41.9726 18.5553 41.9524 18.6059 41.9309 18.6578C41.9296 18.659 41.9296 18.6616 41.9283 18.6654C41.9208 18.6856 41.9119 18.7071 41.9018 18.7286C41.8993 18.7362 41.8955 18.745 41.8917 18.7526C41.8778 18.7893 41.8613 18.8272 41.8436 18.8652C41.8386 18.8804 41.8322 18.8955 41.8246 18.9107C41.7994 18.9701 41.7728 19.0296 41.745 19.0878C41.7159 19.1523 41.6868 19.2155 41.6564 19.2775C41.6172 19.3571 41.578 19.4355 41.5376 19.5139C41.5085 19.5683 41.4807 19.6214 41.4516 19.6746C41.4098 19.7504 41.3681 19.8238 41.3251 19.8984C41.2796 19.9768 41.2328 20.054 41.1847 20.1298C41.1809 20.1374 41.1759 20.1463 41.1696 20.1539C41.1544 20.1792 41.1392 20.2032 41.1228 20.2297C41.1127 20.2462 41.1013 20.2639 41.0886 20.2816C41.0848 20.2879 41.081 20.2955 41.076 20.3018C41.0532 20.3385 41.0292 20.3739 41.0039 20.4093C41.0039 20.4118 41.0026 20.4144 41.0001 20.4156C40.971 20.4599 40.9419 20.5016 40.9116 20.5434C40.837 20.6521 40.7598 20.7596 40.6789 20.8633C40.6548 20.8949 40.6308 20.9266 40.6043 20.9582C40.5752 20.9974 40.5448 21.0341 40.5145 21.0707C40.4727 21.1226 40.431 21.1744 40.3867 21.2237C40.345 21.2731 40.302 21.3237 40.259 21.3717C40.2514 21.3806 40.2438 21.3882 40.2362 21.397C40.235 21.3983 40.2337 21.3995 40.2337 21.4008C40.192 21.4476 40.1515 21.4919 40.1098 21.5361C40.0718 21.5766 40.0339 21.6158 39.996 21.655C39.9896 21.6601 39.9846 21.6664 39.9795 21.6714C39.9517 21.7005 39.9239 21.7296 39.8948 21.7574C39.8859 21.7663 39.8771 21.7764 39.8682 21.7853C39.8202 21.8346 39.7734 21.8801 39.7253 21.9244L39.7215 21.9294C39.7177 21.9345 39.7127 21.9383 39.7089 21.9408C39.7064 21.9433 39.7038 21.9446 39.7013 21.9471C39.7 21.9484 39.7 21.9484 39.6988 21.9497C39.6381 22.0091 39.5761 22.0647 39.5141 22.1191C39.4926 22.1394 39.4699 22.1596 39.4484 22.1786C39.4446 22.1811 39.4408 22.1849 39.437 22.1874C39.4117 22.2102 39.3864 22.2317 39.3599 22.2544C39.3055 22.3025 39.2511 22.3493 39.1954 22.3923C39.1259 22.4492 39.0551 22.5048 38.9842 22.5617C38.9767 22.5668 38.9703 22.5719 38.9627 22.5782C38.9463 22.5908 38.9286 22.6035 38.9109 22.6174C38.8401 22.6705 38.7705 22.7224 38.6984 22.7755C38.6516 22.8084 38.6036 22.8412 38.5555 22.8741C38.5479 22.8804 38.5404 22.8868 38.5315 22.8906C38.4885 22.9209 38.4455 22.95 38.4012 22.9803C38.3595 23.0082 38.3165 23.036 38.2748 23.0638C38.2444 23.0828 38.2153 23.1018 38.185 23.1195C38.1445 23.1447 38.1041 23.1713 38.0636 23.1941C37.9991 23.2333 37.9333 23.2725 37.8688 23.3104C37.8486 23.3218 37.8271 23.3344 37.8069 23.3446C37.7487 23.3787 37.6905 23.4116 37.6311 23.4432C37.5767 23.4723 37.5223 23.5026 37.4679 23.5305C37.3933 23.5697 37.32 23.6076 37.2441 23.6443C37.2188 23.6557 37.1935 23.6683 37.1695 23.6797C37.1353 23.6974 37.0999 23.7138 37.0645 23.7315C36.9203 23.7986 36.7762 23.8631 36.6307 23.925C36.5776 23.9465 36.5245 23.9693 36.4701 23.9895C36.4145 24.0123 36.3588 24.0351 36.3019 24.0566C36.2691 24.0705 36.2374 24.0831 36.2046 24.0945C36.1843 24.1021 36.1641 24.1084 36.1439 24.116C36.1363 24.1185 36.1299 24.1223 36.1223 24.1236C36.0831 24.1388 36.0452 24.1527 36.006 24.1666C35.9554 24.1843 35.9061 24.202 35.8555 24.2184C35.6582 24.2855 35.4622 24.3462 35.2649 24.4031C35.2194 24.4157 35.1751 24.4284 35.1296 24.4397C35.0702 24.4562 35.012 24.4714 34.9525 24.4865C34.8451 24.5144 34.7376 24.5397 34.6313 24.5637C34.5807 24.5751 34.5302 24.5864 34.4796 24.5966C34.4227 24.6092 34.367 24.6219 34.3101 24.6332C34.2342 24.6484 34.1596 24.6623 34.0837 24.675C34.0294 24.6851 33.975 24.6965 33.9206 24.7041C33.7979 24.7243 33.6753 24.7433 33.5538 24.7597C33.4324 24.7761 33.311 24.7901 33.1909 24.804C33.1175 24.8116 33.0455 24.8191 32.9721 24.8255C32.8836 24.8331 32.7951 24.8406 32.7065 24.847C32.6155 24.852 32.5257 24.8571 32.4372 24.8621C32.3651 24.8647 32.2943 24.8672 32.2247 24.8697C32.2019 24.8697 32.1792 24.8697 32.1564 24.871C32.0742 24.8723 31.9933 24.8735 31.9136 24.8735C31.3521 24.8735 30.826 24.8318 30.3518 24.7546C30.6502 24.1223 30.9664 23.5191 31.299 22.9424C32.2917 21.2275 33.4299 19.7643 34.6769 18.5414C35.2687 17.9584 35.8859 17.4323 36.5245 16.9556C36.6358 16.8721 36.7484 16.7912 36.8609 16.7115C37.0519 16.5762 37.2454 16.4446 37.4414 16.3182C37.4515 16.3119 37.4616 16.3043 37.473 16.2979C37.5716 16.2334 37.6715 16.1702 37.7727 16.1082C37.8789 16.0438 37.9852 15.9793 38.0914 15.9173C38.1989 15.8541 38.3051 15.7934 38.4126 15.7326C38.5214 15.6732 38.6289 15.6138 38.7376 15.5569C38.8464 15.5 38.9552 15.443 39.0639 15.3887C39.2827 15.2786 39.5028 15.1737 39.7241 15.075C39.8341 15.0244 39.9454 14.9764 40.0567 14.9296C40.1692 14.8815 40.2805 14.836 40.3931 14.7918C40.5044 14.7462 40.6169 14.7032 40.7295 14.6615C40.8433 14.6198 40.9558 14.5793 41.0696 14.5388C41.2948 14.4604 41.5224 14.3871 41.75 14.3175C41.7513 14.3175 41.7513 14.3175 41.7526 14.3175C42.0839 14.2163 42.419 14.1278 42.7554 14.0469Z" fill="#2D2E29"/>
<path d="M42.6492 15.8161C42.6593 15.7427 42.6669 15.6694 42.6758 15.5935C42.6682 15.6694 42.6593 15.7427 42.6492 15.8161Z" fill="#EE9BA0"/>
<path d="M42.3933 17.2136C42.3933 17.2181 42.3922 17.2237 42.39 17.2282C42.3911 17.2249 42.3922 17.2181 42.3933 17.2136Z" fill="#EE9BA0"/>
<path d="M42.2015 17.9034C42.2116 17.8733 42.2204 17.8419 42.2304 17.8105C42.2216 17.8419 42.2116 17.872 42.2015 17.9034Z" fill="#EE9BA0"/>
<path d="M41.7501 14.3175C41.6362 14.3517 41.5237 14.3871 41.4099 14.4237C41.296 14.4604 41.1822 14.4983 41.0697 14.5388C40.9559 14.5793 40.8433 14.6198 40.7295 14.6615C40.6169 14.7032 40.5044 14.7462 40.3931 14.7917C40.2805 14.836 40.168 14.8815 40.0567 14.9296C39.9454 14.9751 39.8341 15.0244 39.7241 15.075C39.5028 15.1724 39.2815 15.2774 39.0639 15.3887C38.9539 15.4418 38.8452 15.4974 38.7377 15.5569C38.6289 15.6138 38.5201 15.6719 38.4127 15.7326C38.3052 15.7921 38.1977 15.8528 38.0914 15.9173C37.9839 15.978 37.8777 16.0425 37.7727 16.1082C37.6728 16.1689 37.5729 16.2322 37.473 16.2979C37.4616 16.3043 37.4515 16.3119 37.4414 16.3182C37.2466 16.4434 37.0532 16.5749 36.8609 16.7115C36.7484 16.7912 36.6358 16.8721 36.5245 16.9556C35.5052 14.0469 35.8252 12.485 37.6577 10C39.7039 10.9434 40.8711 12.16 41.7501 14.3175Z" fill="#B8A794"/>
<path d="M41.4098 14.4236C41.5237 14.3869 41.6362 14.3515 41.75 14.3174C41.5224 14.3869 41.2948 14.4603 41.0697 14.5387C41.1822 14.4982 41.296 14.4603 41.4098 14.4236Z" fill="#EE9BA0"/>
<path d="M41.745 19.0876C41.7311 19.1205 41.7159 19.1547 41.7008 19.1876C41.6856 19.2179 41.6704 19.247 41.6565 19.2773C41.6868 19.2154 41.7159 19.1521 41.745 19.0876Z" fill="#EE9BA0"/>
<path d="M41.0039 20.4084C41.029 20.3733 41.0528 20.3381 41.0754 20.3018C41.0528 20.3381 41.029 20.3745 41.0039 20.4084Z" fill="#EE9BA0"/>
<path d="M40.7295 14.6614C40.6169 14.7031 40.5044 14.7461 40.3931 14.7916C40.5044 14.7461 40.6169 14.7031 40.7295 14.6614Z" fill="#EE9BA0"/>
<path d="M40.3931 14.7917C40.2806 14.836 40.1693 14.8815 40.0567 14.9296C40.168 14.8815 40.2806 14.836 40.3931 14.7917Z" fill="#EE9BA0"/>
<path d="M40.1098 21.5351C40.1512 21.4912 40.1913 21.4473 40.2327 21.4009C40.1926 21.4473 40.1512 21.4899 40.1098 21.5351Z" fill="#EE9BA0"/>
<path d="M40.1089 21.5361C40.1026 21.5437 40.0963 21.5512 40.0888 21.5587C40.0587 21.5901 40.0273 21.6227 39.996 21.6541C40.0336 21.6152 40.0713 21.5763 40.1089 21.5361Z" fill="#EE9BA0"/>
<path d="M40.0567 14.9297C39.9454 14.9765 39.8341 15.0245 39.7241 15.0751C39.8341 15.0245 39.9454 14.9752 40.0567 14.9297Z" fill="#EE9BA0"/>
<path d="M39.9795 21.6696C39.984 21.6651 39.9885 21.6595 39.9941 21.655C39.9908 21.6606 39.9852 21.6651 39.9795 21.6696Z" fill="#EE9BA0"/>
<path d="M39.9786 21.6714C39.9573 21.6952 39.9347 21.7178 39.9122 21.7404C39.8984 21.7554 39.8833 21.7692 39.8682 21.7843C39.877 21.7755 39.8858 21.7655 39.8946 21.7567C39.9234 21.7291 39.951 21.7002 39.9786 21.6714Z" fill="#EE9BA0"/>
<path d="M39.8671 21.7852C39.8194 21.8341 39.7705 21.8817 39.7216 21.9282L39.7254 21.9231C39.773 21.8792 39.8194 21.8341 39.8671 21.7852Z" fill="#EE9BA0"/>
<path d="M39.7014 21.9473C39.7039 21.9448 39.7065 21.9435 39.709 21.9409C39.7052 21.9448 39.7026 21.9473 39.6988 21.9499C39.7001 21.9486 39.7001 21.9486 39.7014 21.9473Z" fill="#EE9BA0"/>
<path d="M39.4355 22.1875C39.4256 22.1974 39.4169 22.2049 39.407 22.2136C39.3909 22.2272 39.376 22.2409 39.3598 22.2533C39.3859 22.2309 39.4107 22.2098 39.4355 22.1875Z" fill="#EE9BA0"/>
<path d="M39.7241 15.075C39.5028 15.1736 39.2827 15.2786 39.064 15.3886C39.2815 15.2773 39.5028 15.1723 39.7241 15.075Z" fill="#EE9BA0"/>
<path d="M38.9843 22.5618C39.0551 22.5049 39.1259 22.4492 39.1955 22.3923C39.1259 22.4518 39.0551 22.5074 38.9843 22.5618Z" fill="#EE9BA0"/>
<path d="M39.064 15.3887C38.9552 15.4431 38.8464 15.5 38.7377 15.5569C38.8452 15.4974 38.9539 15.4418 39.064 15.3887Z" fill="#EE9BA0"/>
<path d="M37.6576 25.4287C38.6681 25.4287 39.4888 26.7035 39.4888 28.2742C39.4888 29.8461 38.6681 31.1196 37.6576 31.1196C36.6459 31.1196 35.8251 29.8461 35.8251 28.2742C35.8251 26.7035 36.6459 25.4287 37.6576 25.4287ZM38.6251 27.5053C38.6251 27.0803 38.4088 26.7351 38.1407 26.7351C37.8739 26.7351 37.6576 27.0803 37.6576 27.5053C37.6576 27.9302 37.8739 28.2742 38.1407 28.2742C38.4088 28.2742 38.6251 27.9302 38.6251 27.5053Z" fill="#2D2E29"/>
<path d="M38.7377 15.5569C38.6289 15.6138 38.5214 15.6732 38.4127 15.7327C38.5202 15.672 38.6289 15.6138 38.7377 15.5569Z" fill="#EE9BA0"/>
<path d="M38.4013 22.9797C38.4452 22.9496 38.4878 22.9207 38.5305 22.8906C38.4878 22.922 38.4439 22.9508 38.4013 22.9797Z" fill="#EE9BA0"/>
<path d="M38.1408 26.7351C38.4089 26.7351 38.6251 27.0804 38.6251 27.5053C38.6251 27.9302 38.4089 28.2742 38.1408 28.2742C37.8739 28.2742 37.6577 27.9302 37.6577 27.5053C37.6577 27.0804 37.8739 26.7351 38.1408 26.7351Z" fill="white"/>
<path d="M38.4126 15.7327C38.3051 15.7934 38.1989 15.8541 38.0914 15.9173C38.1976 15.8528 38.3051 15.7921 38.4126 15.7327Z" fill="#EE9BA0"/>
<path d="M38.2741 23.0637C38.2515 23.0775 38.2277 23.0926 38.2051 23.1076C38.1988 23.1114 38.1913 23.1152 38.185 23.1189C38.2151 23.1014 38.244 23.0825 38.2741 23.0637Z" fill="#EE9BA0"/>
<path d="M38.0915 15.9172C37.9852 15.9792 37.879 16.0437 37.7728 16.1082C37.8777 16.0424 37.984 15.9779 38.0915 15.9172Z" fill="#EE9BA0"/>
<path d="M37.7728 16.1082C37.6716 16.1701 37.5717 16.2334 37.473 16.2979C37.5729 16.2321 37.6729 16.1689 37.7728 16.1082Z" fill="#EE9BA0"/>
<path d="M37.4679 23.5305C37.4502 23.5406 37.4338 23.5495 37.4161 23.5583C37.4148 23.5583 37.4148 23.5583 37.4136 23.5596C37.368 23.5824 37.3225 23.6064 37.277 23.6292C37.2656 23.6342 37.2555 23.6393 37.2441 23.6443C37.32 23.6077 37.3933 23.5697 37.4679 23.5305Z" fill="#EE9BA0"/>
<path d="M37.4414 16.3181C37.2454 16.4446 37.0519 16.5761 36.8609 16.7114C37.0532 16.5748 37.2467 16.4433 37.4414 16.3181Z" fill="#EE9BA0"/>
<path d="M34.6605 18.5553L34.6769 18.5414C33.43 19.7643 32.2918 21.2275 31.299 22.9424L31.3193 22.9044C30.4112 19.505 27.8959 17.2578 24.7355 16.9833C26.4048 16.5053 30.9512 14.5742 34.6605 18.5553Z" fill="#2D2E29"/>
<path d="M33.1909 24.804C33.1327 24.8103 33.0733 24.8166 33.0139 24.8229C33 24.8229 32.986 24.8242 32.9721 24.8255C33.0455 24.8191 33.1176 24.8115 33.1909 24.804Z" fill="#EE9BA0"/>
<path d="M30.0243 40.9788C31.3622 40.9788 32.4473 41.7742 32.4473 42.7569C32.4473 43.7382 31.3622 44.5349 30.0243 44.5349C28.6863 44.5349 27.6024 43.7382 27.6024 42.7569C27.6024 41.7742 28.6863 40.9788 30.0243 40.9788Z" fill="#A84547"/>
<path d="M32.613 58.0869C31.6746 59.4401 30.9892 60.6883 30.4909 61.829C30.4732 61.8695 30.4568 61.9087 30.4403 61.9479C21.8154 59.7006 18.22 56.5099 14.5601 54.0603C14.5538 54.0616 14.5475 54.0654 14.5412 54.0679C14.5361 54.0641 14.5311 54.0616 14.526 54.059C16.5848 53.0321 18.1265 50.9164 18.6007 48.8613C18.602 48.8613 22.1999 51.6777 26.5528 54.2335C26.5553 54.2335 26.5566 54.2348 26.5579 54.2361C28.6015 55.784 30.6262 57.055 32.613 58.0869Z" fill="#FFFBEA"/>
<path d="M31.3192 22.9043L31.299 22.9423C30.9664 23.519 30.6502 24.1222 30.3518 24.7545C30.3505 24.7545 30.3505 24.7545 30.3493 24.7545C27.9477 24.7545 25.8636 23.0776 24.8114 20.6128L24.093 17.0136C24.2385 16.9605 24.3498 16.9769 24.7355 16.9833C27.8958 17.2577 30.4112 19.505 31.3192 22.9043Z" fill="#EE9BA0"/>
<path d="M30.4378 61.9529C30.1204 62.694 29.8814 63.3871 29.7056 64.0295C29.6942 64.07 29.6841 64.1104 29.6739 64.1509C20.4496 60.5568 19.4316 59.9561 12.9907 54.6003C13.0577 54.5889 13.1248 54.5737 13.1918 54.5548C13.2361 54.5446 13.2803 54.5345 13.3246 54.5219C13.7457 54.4157 14.1529 54.2601 14.5412 54.0679C18.1985 56.52 21.8015 59.7107 30.4378 61.9529Z" fill="#DDB590"/>
<path d="M27.6113 54.7876C27.6922 54.8344 27.7732 54.8787 27.8541 54.9229C27.7694 54.8787 27.6859 54.8319 27.6024 54.7876C27.6062 54.7876 27.6075 54.7876 27.6113 54.7876Z" fill="#F8ACB1"/>
<path d="M18.5412 48.8678C18.5463 48.8741 18.5514 48.8791 18.5564 48.8842C18.0822 50.9392 16.5393 53.0563 14.4805 54.0806C14.1112 54.2653 13.7242 54.4158 13.3246 54.522C13.2803 54.5346 13.2361 54.5448 13.1918 54.5549C13.1235 54.57 13.0552 54.5852 12.9869 54.5979C12.9882 54.5991 12.9894 54.6004 12.9907 54.6004C12.9629 54.6067 12.9351 54.613 12.9072 54.6181C11.9803 53.6974 11.9803 53.6974 11.0533 52.7743C10.7232 50.6661 11.9803 49.9376 13.3296 49.9364C15.0104 45.9553 16.4407 46.5749 18.54 48.8665L18.5412 48.8678Z" fill="#B7A18B"/>
<rect x="31" y="72" width="31" height="31" rx="15.5" fill="#2EA1D9"/>
<rect x="31" y="72" width="31" height="31" rx="15.5" stroke="white" stroke-width="4"/>
<mask id="mask0_377_14146" style="mask-type:alpha" maskUnits="userSpaceOnUse" x="37" y="78" width="19" height="19">
<rect x="37.75" y="78.75" width="17.5" height="17.5" fill="white"/>
</mask>
<g mask="url(#mask0_377_14146)">
<path d="M40.3862 93.3333C40.0506 93.3333 39.7704 93.2208 39.5456 92.996C39.3207 92.7712 39.2083 92.491 39.2083 92.1554V84.3028C39.2083 83.9672 39.3207 83.687 39.5456 83.4622C39.7704 83.2373 40.0506 83.1249 40.3862 83.1249H42.5429L43.8918 81.6666H47.6779V82.3958H44.2073L42.8626 83.8541H40.3862C40.2553 83.8541 40.1478 83.8962 40.0637 83.9803C39.9796 84.0644 39.9375 84.1719 39.9375 84.3028V92.1554C39.9375 92.2862 39.9796 92.3938 40.0637 92.4779C40.1478 92.562 40.2553 92.6041 40.3862 92.6041H51.1555C51.2863 92.6041 51.3938 92.562 51.478 92.4779C51.5621 92.3938 51.6042 92.2862 51.6042 92.1554V86.322H52.3333V92.1554C52.3333 92.491 52.2209 92.7712 51.9961 92.996C51.7713 93.2208 51.491 93.3333 51.1555 93.3333H40.3862ZM51.6042 83.8541V82.3958H50.1458V81.6666H51.6042V80.2083H52.3333V81.6666H53.7917V82.3958H52.3333V83.8541H51.6042ZM45.7708 90.9494C46.5327 90.9494 47.1766 90.6865 47.7024 90.1607C48.2283 89.6348 48.4912 88.991 48.4912 88.2291C48.4912 87.4672 48.2283 86.8233 47.7024 86.2975C47.1766 85.7716 46.5327 85.5087 45.7708 85.5087C45.0089 85.5087 44.3651 85.7716 43.8392 86.2975C43.3134 86.8233 43.0505 87.4672 43.0505 88.2291C43.0505 88.991 43.3134 89.6348 43.8392 90.1607C44.3651 90.6865 45.0089 90.9494 45.7708 90.9494ZM45.7708 90.2203C45.2043 90.2203 44.7308 90.03 44.3504 89.6496C43.9699 89.2691 43.7796 88.7956 43.7796 88.2291C43.7796 87.6626 43.9699 87.1891 44.3504 86.8086C44.7308 86.4281 45.2043 86.2379 45.7708 86.2379C46.3373 86.2379 46.8108 86.4281 47.1913 86.8086C47.5718 87.1891 47.762 87.6626 47.762 88.2291C47.762 88.7956 47.5718 89.2691 47.1913 89.6496C46.8108 90.03 46.3373 90.2203 45.7708 90.2203Z" fill="white"/>
</g>
</svg>
