<svg width="24" height="24" viewBox="0 0 24 24" fill="none" xmlns="http://www.w3.org/2000/svg">
<g id="Frame 1321315115">
<rect id="Rectangle 1" x="7.24551" y="5.88027" width="9.31739" height="13.7696" rx="4.6587" stroke="white" stroke-width="0.7"/>
<path id="Vector 1" d="M7.03467 15.1304H16.7738" stroke="white" stroke-width="0.7"/>
<rect id="Rectangle 2" x="8.84326" y="11.374" width="1.11304" height="1.11304" rx="0.556522" fill="white"/>
<path id="Vector 2" d="M7.31294 8.73043L6.64454 8.10659C5.72595 7.24925 5.12453 6.10628 4.93814 4.86366L4.81094 4.01565C4.81016 4.01045 4.81636 4.00717 4.82022 4.01073L6.13214 5.22173C6.45444 5.51924 6.81079 5.77761 7.19376 5.99145L9 7" stroke="white" stroke-width="0.7"/>
<path id="Vector 3" d="M16.4957 8.73043L17.1641 8.10659C18.0826 7.24925 18.6841 6.10628 18.8705 4.86366L18.9977 4.01565C18.9984 4.01045 18.9922 4.00717 18.9884 4.01073L17.6011 5.29127C17.3286 5.54284 17.0316 5.76653 16.7146 5.95901L15 7" stroke="white" stroke-width="0.7"/>
<rect id="Rectangle 3" x="13.8521" y="11.374" width="1.11304" height="1.11304" rx="0.556522" fill="white"/>
<rect id="Rectangle 6" x="10.2349" y="16.3826" width="0.278261" height="1.3913" rx="0.13913" fill="white"/>
<rect id="Rectangle 7" x="13.2954" y="16.3826" width="0.278261" height="1.3913" rx="0.13913" fill="white"/>
<path id="Vector 4" d="M6.09036 8.11553L7.05991 8.65225C7.24049 8.75221 7.25321 9.00707 7.08348 9.12451L6.1267 9.78657C5.70484 10.0785 5.15658 10.1146 4.7001 9.88045L3.48277 9.25612C3.28107 9.15267 3.28107 8.86437 3.48277 8.76092L4.78161 8.09479C5.19408 7.88325 5.68481 7.89103 6.09036 8.11553Z" stroke="white" stroke-width="0.7"/>
<path id="Vector 5" d="M17.7182 8.11553L16.7487 8.65225C16.5681 8.75221 16.5554 9.00707 16.7251 9.12451L17.6819 9.78657C18.1037 10.0785 18.652 10.1146 19.1085 9.88045L20.3258 9.25612C20.5275 9.15267 20.5275 8.86437 20.3258 8.76092L19.027 8.09479C18.6145 7.88325 18.1238 7.89103 17.7182 8.11553Z" stroke="white" stroke-width="0.7"/>
</g>
</svg>
