<svg width="65" height="60" viewBox="0 0 65 60" fill="none" xmlns="http://www.w3.org/2000/svg">
<path d="M64.4264 8.5552C65.5279 14.0564 60.6792 17.2977 55.0693 18.0439C54.6469 18.0995 54.2194 18.1425 53.7894 18.1703C53.3746 18.1981 52.956 18.2108 52.5387 18.2108C51.3398 16.4744 51.5207 14.5775 52.6108 12.9182C54.5495 9.96655 59.3665 7.76733 64.4264 8.5552Z" fill="#EE9BA0"/>
<path d="M64.4263 8.55531C59.3665 7.76743 54.5494 9.96665 52.6107 12.9183C51.5206 14.5776 51.3398 16.4745 52.5386 18.2109C52.956 18.2109 53.3746 18.1982 53.7894 18.1704C54.0233 21.6849 53.8159 26.5715 51.6256 30.765C48.187 26.2654 40.9064 22.8218 32.2689 22.1654C26.3124 21.7127 20.7935 22.6688 16.6024 24.5961C17.1083 20.7478 18.0643 17.4837 19.3518 14.7546C19.826 14.8317 20.3521 14.8735 20.9136 14.8735C20.9933 14.8735 21.0742 14.8722 21.1564 14.871C21.1792 14.8697 21.2019 14.8697 21.2247 14.8697C21.2943 14.8672 21.3651 14.8646 21.4372 14.8621C21.5257 14.857 21.6155 14.852 21.7065 14.8469C21.7951 14.8406 21.8836 14.833 21.9721 14.8254C21.986 14.8242 21.9999 14.8229 22.0138 14.8229C22.0733 14.8166 22.1327 14.8103 22.1909 14.8039C22.311 14.7913 22.4324 14.7761 22.5538 14.7597C22.6753 14.7432 22.7979 14.7243 22.9206 14.704C22.975 14.6964 23.0294 14.6851 23.0837 14.6749C23.1596 14.6623 23.2342 14.6484 23.3101 14.6332C23.367 14.6218 23.4227 14.6092 23.4796 14.5965C23.5302 14.5864 23.5807 14.575 23.6313 14.5636C23.7376 14.5396 23.8451 14.5143 23.9525 14.4865C24.012 14.4713 24.0702 14.4562 24.1296 14.4397C24.1751 14.4283 24.2194 14.4157 24.2649 14.403C24.3534 14.3777 24.442 14.3512 24.5305 14.3246C24.5482 14.3183 24.5659 14.3132 24.5836 14.3082C24.6747 14.2791 24.7645 14.25 24.8555 14.2184C24.9061 14.202 24.9554 14.1843 25.006 14.1665C25.0439 14.1539 25.0831 14.14 25.1223 14.1235C25.1299 14.1223 25.1363 14.1185 25.1439 14.116C25.1641 14.1084 25.1843 14.102 25.2046 14.0945C25.2374 14.0831 25.2703 14.0704 25.3019 14.0565C25.3588 14.035 25.4145 14.0123 25.4701 13.9895C25.5245 13.9693 25.5776 13.9465 25.6307 13.925C25.7762 13.863 25.9203 13.7985 26.0645 13.7315C26.1138 13.7087 26.1632 13.6847 26.2125 13.6607C26.2226 13.6556 26.234 13.6506 26.2441 13.6442C26.2555 13.6392 26.2656 13.6341 26.277 13.6291C26.3225 13.6063 26.368 13.5823 26.4136 13.5595C26.4148 13.5583 26.4148 13.5583 26.4161 13.5583C26.4338 13.5494 26.4502 13.5405 26.4679 13.5304C26.5223 13.5026 26.5767 13.4723 26.6311 13.4432C26.6905 13.4116 26.7487 13.3787 26.8069 13.3445C26.8271 13.3344 26.8486 13.3218 26.8688 13.3104C26.9346 13.2737 26.9991 13.2345 27.0636 13.194C27.1041 13.1713 27.1445 13.1447 27.185 13.1194C27.1913 13.1156 27.1989 13.1118 27.2052 13.108C27.228 13.0929 27.252 13.0777 27.2748 13.0638C27.3165 13.036 27.3595 13.0081 27.4012 12.9803C27.4442 12.9512 27.4885 12.9221 27.5315 12.8905C27.5404 12.8867 27.5479 12.8804 27.5555 12.8741C27.6036 12.8412 27.6516 12.8083 27.6984 12.7754C27.7705 12.7223 27.8401 12.6705 27.9109 12.6174C27.9286 12.6034 27.9463 12.5908 27.9627 12.5781C27.9703 12.5718 27.9767 12.5668 27.9842 12.5617C28.0551 12.5073 28.1259 12.4517 28.1954 12.3922C28.2511 12.3492 28.3055 12.3025 28.3598 12.2544C28.3763 12.2418 28.3915 12.2278 28.4079 12.2139C28.418 12.2051 28.4269 12.1975 28.437 12.1874C28.4408 12.1848 28.4446 12.181 28.4484 12.1785C28.4711 12.1596 28.4926 12.1393 28.5141 12.1191C28.5761 12.0647 28.6381 12.0091 28.6988 11.9496C28.7026 11.9471 28.7051 11.9446 28.7089 11.9408C28.7127 11.9382 28.7177 11.9344 28.7215 11.9294C28.7709 11.8826 28.8202 11.8345 28.8682 11.7852C28.8834 11.77 28.8986 11.7561 28.9125 11.741C28.9353 11.7182 28.958 11.6954 28.9795 11.6714C28.9858 11.6663 28.9922 11.6613 28.996 11.655C29.0276 11.6233 29.0592 11.5905 29.0895 11.5588C29.0971 11.5513 29.1035 11.5437 29.1098 11.5361C29.1515 11.4906 29.1932 11.4476 29.2337 11.4008C29.2337 11.3995 29.235 11.3982 29.2362 11.397C29.2438 11.3881 29.2514 11.3805 29.259 11.3717C29.2767 11.3527 29.2944 11.3325 29.3109 11.3135C29.3374 11.2832 29.3627 11.2528 29.3867 11.2237C29.431 11.1731 29.4727 11.1238 29.5145 11.0707C29.5448 11.034 29.5752 10.9973 29.6043 10.9581C29.6308 10.9265 29.6548 10.8949 29.6789 10.8633C29.7598 10.7596 29.837 10.6521 29.9116 10.5433C29.9432 10.5016 29.9723 10.4599 30.0001 10.4156C30.0026 10.4143 30.0039 10.4118 30.0039 10.4093C30.0292 10.3751 30.0532 10.3385 30.076 10.3018C30.081 10.2955 30.0848 10.2879 30.0886 10.2815C30.1013 10.2638 30.1127 10.2461 30.1228 10.2297C30.1392 10.2031 30.1544 10.1791 30.1696 10.1538C30.1759 10.1462 30.1809 10.1374 30.1847 10.1298C30.2341 10.0539 30.2796 9.97677 30.3251 9.89836C30.3681 9.82375 30.4098 9.7504 30.4516 9.67452C30.4807 9.62141 30.5085 9.56829 30.5376 9.51391C30.578 9.4355 30.6172 9.35709 30.6564 9.27742C30.6704 9.24707 30.6855 9.21798 30.7007 9.18763C30.7159 9.15475 30.7311 9.1206 30.745 9.08772C30.7728 9.02955 30.7994 8.97011 30.8246 8.91067C30.8322 8.8955 30.8386 8.88032 30.8436 8.86515C30.8613 8.82721 30.8778 8.78927 30.8917 8.75259C30.8955 8.745 30.8993 8.73615 30.9018 8.72856C30.9119 8.70706 30.9208 8.68556 30.9283 8.66533C30.9296 8.66154 30.9296 8.65901 30.9309 8.65774C30.9524 8.60589 30.9726 8.55531 30.9916 8.50219C30.9954 8.49713 30.9966 8.49207 30.9979 8.48701C31.0169 8.44022 31.0346 8.39343 31.051 8.34537C31.0637 8.31376 31.075 8.28088 31.0852 8.24926C31.1054 8.19615 31.1231 8.1443 31.1408 8.08865C31.1433 8.08106 31.1471 8.07221 31.1497 8.06209C31.1648 8.02163 31.1775 7.98116 31.1901 7.93942C31.1901 7.93816 31.1914 7.93816 31.1914 7.93563C31.1927 7.93184 31.1939 7.92804 31.1952 7.92425V7.92298C31.1977 7.91666 31.199 7.91034 31.2015 7.90401C31.2116 7.8724 31.2217 7.84205 31.2306 7.81043C31.2445 7.76617 31.2572 7.72064 31.2698 7.67511C31.2938 7.59923 31.3153 7.52209 31.3343 7.44495C31.3381 7.43483 31.3419 7.42471 31.3431 7.41333C31.3609 7.35389 31.376 7.29192 31.3899 7.22995C31.3925 7.2249 31.3937 7.21858 31.3937 7.21352C31.395 7.20972 31.395 7.20719 31.3963 7.2034C31.4026 7.17937 31.4089 7.15408 31.414 7.13131C31.4241 7.09211 31.4342 7.05038 31.4418 7.01117C31.4671 6.90368 31.4898 6.79492 31.5101 6.68363C31.5177 6.65201 31.5227 6.61913 31.5291 6.58625C31.5291 6.58372 31.5303 6.58119 31.5303 6.57866C31.5379 6.54958 31.543 6.52049 31.5468 6.4914C31.5531 6.45978 31.5594 6.42817 31.5645 6.39529C31.5695 6.37253 31.5721 6.34976 31.5758 6.32573C31.5784 6.31056 31.5809 6.29412 31.5834 6.27894C31.5898 6.23974 31.5961 6.2018 31.6011 6.16386C31.6125 6.0981 31.6214 6.0336 31.6302 5.96531C31.6378 5.91599 31.6441 5.86793 31.6492 5.81608C31.6593 5.74273 31.6682 5.66938 31.6758 5.5935C31.677 5.58212 31.6783 5.56948 31.6795 5.55683C31.6808 5.54798 31.6808 5.53912 31.6821 5.52901C31.6846 5.50877 31.6871 5.48601 31.6884 5.46451C31.6973 5.37725 31.7048 5.28999 31.7112 5.20272V5.20146C31.715 5.14455 31.72 5.08891 31.7225 5.03326C31.7225 5.02315 31.7238 5.01429 31.7238 5.00544C31.7251 4.98268 31.7276 4.95865 31.7289 4.93462C31.7327 4.89415 31.7339 4.85242 31.7352 4.80942C31.7365 4.80183 31.7365 4.79298 31.7365 4.78539C31.7377 4.77907 31.7377 4.77401 31.7377 4.76895C31.7428 4.68296 31.7466 4.59696 31.7478 4.51096C31.7491 4.50464 31.7491 4.49958 31.7478 4.49326C31.7478 4.49199 31.7478 4.49073 31.7478 4.48947V4.48441C31.7504 4.45405 31.7504 4.42244 31.7504 4.39082C31.7516 4.3845 31.7516 4.37691 31.7516 4.36932C31.7542 4.26309 31.7554 4.1556 31.7554 4.04684C35.4343 3.17929 39.3243 3.54857 42.8932 4.9675C45.2189 5.89196 47.408 7.26157 49.3138 9.02449C49.9815 8.35423 51.1058 7.48794 52.5791 6.83665C55.4625 5.56189 59.6814 5.10914 64.4263 8.55531ZM44.4032 18.2109C44.4032 16.3013 43.4901 14.7546 42.3646 14.7546C41.2378 14.7546 40.3259 16.3013 40.3259 18.2109C40.3259 20.1205 41.2378 21.6672 42.3646 21.6672C43.4901 21.6672 44.4032 20.1205 44.4032 18.2109ZM28.4888 18.2741C28.4888 16.7034 27.6681 15.4287 26.6576 15.4287C25.6459 15.4287 24.8252 16.7034 24.8252 18.2741C24.8252 19.8461 25.6459 21.1196 26.6576 21.1196C27.6681 21.1196 28.4888 19.8461 28.4888 18.2741Z" fill="#FFFBEA"/>
<path d="M57.2811 47.0056C60.2316 52.0465 59.7472 56.9432 59.7472 59.5648H57.3026C57.2912 59.5648 59.0731 55.4332 57.2811 47.0056Z" fill="#DDB590"/>
<path d="M57.2811 47.0057C59.0731 55.4333 57.2912 59.5649 57.3026 59.5649H48.6182C48.9534 57.7046 48.8408 56.7625 46.6745 53.6666C45.7007 56.9509 45.1695 57.8045 43.6646 59.5649H18.3717C18.3717 58.9048 17.905 57.0381 18.6739 54.151C18.6828 54.1547 18.6916 54.1573 18.7005 54.1611C18.8851 53.482 19.1406 52.7459 19.4846 51.9581C19.4744 51.9555 19.4631 51.953 19.453 51.9505C19.9512 50.8123 20.6341 49.5666 21.5712 48.2172C21.5965 48.1793 21.6231 48.1414 21.6484 48.1059C30.0393 52.4475 37.7764 52.493 43.4964 50.763C49.6413 48.9065 53.4593 45.0025 53.257 42.1836C55.0376 43.7593 56.3364 45.3895 57.2811 47.0057Z" fill="#FFFBEA"/>
<path d="M55.0693 18.0439C56.7816 23.296 56.6943 29.7508 53.735 37.025C53.8754 34.8359 53.1065 32.7025 51.6256 30.765C53.816 26.5715 54.0234 21.6849 53.7894 18.1704C54.2194 18.1426 54.6469 18.0996 55.0693 18.0439Z" fill="#DDB590"/>
<path d="M51.6256 30.7651C53.1065 32.7025 53.8754 34.836 53.735 37.0251C53.7337 37.0567 53.7312 37.0883 53.7287 37.1199C53.6148 38.616 53.085 40.0223 52.2073 41.3059C52.1719 41.3577 52.1365 41.4083 52.0998 41.4589C52.0657 41.507 52.0315 41.555 51.9948 41.6031C51.9658 41.6423 51.9367 41.6828 51.9063 41.722C51.8545 41.7915 51.8013 41.8598 51.747 41.9268C51.6926 41.9964 51.6382 42.0634 51.5813 42.1317C51.5332 42.1873 51.4852 42.2443 51.4359 42.3012C51.3322 42.42 51.2259 42.5377 51.1159 42.654C51.0767 42.6957 51.0362 42.7375 50.9958 42.7792C50.949 42.8273 50.9009 42.8766 50.8529 42.9246C50.7922 42.9853 50.7289 43.0473 50.6657 43.1068C50.6037 43.1675 50.5405 43.2269 50.476 43.2863C50.4052 43.3508 50.3331 43.4153 50.2597 43.4798C50.1902 43.5418 50.1206 43.6025 50.0485 43.6645C49.9803 43.7214 49.9107 43.7795 49.8399 43.8377C49.6881 43.9604 49.5326 44.0831 49.372 44.2032C49.2986 44.2588 49.2253 44.3132 49.1494 44.3676C49.0318 44.4523 48.9116 44.5371 48.7902 44.6205C48.7295 44.6623 48.6688 44.704 48.6068 44.7445C48.5461 44.7875 48.4842 44.8267 48.4209 44.8671C48.3666 44.9025 48.3109 44.938 48.2553 44.9734C48.2135 44.9999 48.1718 45.0265 48.1288 45.053C48.0567 45.0973 47.9834 45.1428 47.91 45.1858C47.8493 45.2225 47.7886 45.2604 47.7267 45.2946C47.6824 45.3211 47.6381 45.3477 47.5939 45.3717C47.4762 45.44 47.3561 45.5071 47.236 45.5728C47.1171 45.6398 46.9957 45.7043 46.873 45.7676C46.806 45.8017 46.7377 45.8384 46.6694 45.8713C46.6011 45.9067 46.5316 45.9408 46.462 45.975C46.4557 45.9788 46.4494 45.9813 46.443 45.9838C46.3798 46.0154 46.3166 46.0458 46.2521 46.0774C46.1825 46.1116 46.1117 46.1457 46.0409 46.1786C45.9701 46.2115 45.8992 46.2443 45.8272 46.276C45.7551 46.3088 45.683 46.3417 45.6096 46.3733C45.5553 46.3986 45.5009 46.4227 45.4465 46.4441C45.3909 46.4682 45.3365 46.4909 45.2808 46.515C45.2656 46.5213 45.2492 46.5289 45.234 46.5352C45.1834 46.558 45.1316 46.5782 45.0785 46.5997C44.9609 46.6478 44.842 46.6958 44.7219 46.7426C44.5714 46.802 44.4196 46.8602 44.2653 46.9171C44.1995 46.9424 44.1338 46.9677 44.0668 46.9917C44.0642 46.9917 44.063 46.9917 44.0604 46.993C43.9833 47.0208 43.9049 47.0487 43.8265 47.0765C43.7013 47.1195 43.5736 47.1637 43.4458 47.2055C43.375 47.2295 43.3042 47.2535 43.2321 47.2763C43.1802 47.2927 43.1271 47.3104 43.074 47.3256C43.0601 47.3319 43.0462 47.3357 43.0323 47.3395C42.9197 47.3749 42.8072 47.4116 42.6934 47.4432C42.6048 47.471 42.515 47.4976 42.4252 47.5229C42.3608 47.5419 42.2963 47.5608 42.2318 47.5785C42.0914 47.619 41.9485 47.6569 41.8056 47.6962C41.731 47.7151 41.6551 47.7354 41.5792 47.7543C41.5046 47.7746 41.4287 47.7935 41.3528 47.8112C41.1834 47.8542 41.0126 47.8947 40.8406 47.9339C40.7053 47.9655 40.57 47.9959 40.4334 48.025C40.417 48.0288 40.4006 48.0325 40.3841 48.0351C40.3221 48.049 40.2589 48.0616 40.1957 48.0755C40.0629 48.1021 39.9301 48.1299 39.796 48.1552C39.6772 48.178 39.5583 48.202 39.4382 48.2222C39.2952 48.2488 39.1536 48.2728 39.0094 48.2969C38.8779 48.3196 38.7451 48.3411 38.6123 48.3614C38.4884 48.3803 38.3645 48.3993 38.2393 48.417C38.1469 48.4309 38.0521 48.4436 37.9585 48.4562C37.9471 48.4575 37.937 48.4587 37.9256 48.46C37.8662 48.4701 37.8055 48.4777 37.7461 48.4853C37.6639 48.4954 37.5804 48.5055 37.4982 48.5169C37.464 48.5194 37.4312 48.5232 37.397 48.527C37.2655 48.5435 37.134 48.5586 37.0012 48.5726L36.9556 48.5764C36.8406 48.589 36.7242 48.6016 36.6079 48.613C36.4283 48.6295 36.2474 48.6446 36.0653 48.6598C35.9945 48.6649 35.9224 48.6712 35.8516 48.6763C35.8263 48.6775 35.8023 48.68 35.777 48.6813H35.7694C35.7492 48.6838 35.7289 48.6838 35.7087 48.6851C35.6354 48.6914 35.5607 48.6965 35.4874 48.7003C35.476 48.7015 35.4646 48.7016 35.4532 48.7028C35.3559 48.7091 35.2598 48.7155 35.1624 48.7193C35.0713 48.7243 34.9803 48.7306 34.888 48.7332C34.7463 48.7408 34.6034 48.7471 34.4605 48.7509C34.3429 48.7547 34.224 48.7585 34.1051 48.7623C34.0052 48.7648 33.9041 48.766 33.8029 48.7673C33.7245 48.7711 33.6461 48.7711 33.5664 48.7711C32.4826 48.7838 31.3786 48.7483 30.2568 48.6623C25.1856 48.2779 20.5823 46.931 16.9489 44.9734C20.5721 46.8918 25.1552 48.2109 30.1986 48.589C33.5613 48.8419 36.7837 48.6497 39.7063 48.092C45.3883 47.0107 49.9385 44.5472 52.1782 41.2743V41.273C53.0369 40.021 53.5554 38.6476 53.6692 37.1907L53.6705 37.1869V37.1806C53.8159 35.2862 53.3126 33.1704 51.5724 30.8675C50.5633 41.4134 44.4967 45.3743 37.3983 46.4669C30.1038 47.5899 21.7192 45.6854 16.6113 44.7875C16.5038 44.7268 16.3963 44.6661 16.2888 44.6054C16.247 44.5813 16.2053 44.5573 16.1649 44.5333C16.0725 44.4789 15.9815 44.4232 15.8904 44.3689C15.812 44.3208 15.7336 44.274 15.6565 44.226H15.6552C15.5224 44.1412 15.3921 44.0603 15.2619 43.9743C15.1999 43.9338 15.138 43.8934 15.076 43.8542C15.014 43.8124 14.9533 43.772 14.8926 43.7302C14.8876 43.7277 14.8825 43.7226 14.8787 43.7201C14.7522 43.6341 14.627 43.5468 14.5031 43.4596C14.2578 43.2851 14.0175 43.1068 13.7848 42.9246C13.7266 42.8816 13.6697 42.8348 13.6128 42.7881C13.5546 42.7425 13.4977 42.697 13.4421 42.6502C13.3852 42.6047 13.327 42.5579 13.2701 42.5098C13.2132 42.463 13.1575 42.415 13.1019 42.3682C13.0943 42.3606 13.088 42.3543 13.0804 42.348C13.0361 42.3088 12.9906 42.2696 12.9463 42.2304C12.8919 42.1836 12.8388 42.1355 12.787 42.0887C12.7339 42.0419 12.682 41.9939 12.6302 41.9458C12.5783 41.8977 12.5265 41.8497 12.4759 41.8016C12.3734 41.7055 12.2735 41.6094 12.1749 41.5095C12.1268 41.4614 12.0775 41.4121 12.0295 41.3641C11.7588 41.0871 11.5021 40.8038 11.2631 40.5155C11.2251 40.4712 11.1872 40.4244 11.1505 40.3776C11.105 40.3233 11.0607 40.2676 11.0177 40.2132C10.9735 40.1576 10.9305 40.1019 10.8887 40.0463C10.804 39.935 10.7205 39.8237 10.6409 39.7099C10.6333 39.701 10.627 39.6909 10.6206 39.6821C10.5561 39.5898 10.4929 39.4987 10.4309 39.4051C10.4233 39.3937 10.4158 39.3824 10.4082 39.3722C10.3702 39.3141 10.3336 39.2572 10.2969 39.199C10.2602 39.1433 10.2248 39.0839 10.1894 39.027C10.1641 38.9853 10.1388 38.9435 10.1148 38.9018C10.0945 38.8702 10.0756 38.8386 10.0579 38.8057C10.0326 38.764 10.0085 38.7222 9.98578 38.6805C9.9529 38.6223 9.92128 38.5641 9.88967 38.506C9.87323 38.4769 9.85805 38.4478 9.84414 38.4187C9.84161 38.4162 9.84035 38.4124 9.83908 38.4098C9.82138 38.3782 9.80493 38.3466 9.78976 38.315C9.7847 38.3061 9.77964 38.2973 9.77585 38.2897C9.75182 38.2442 9.73032 38.1999 9.70882 38.1557C9.64938 38.0368 9.59248 37.9154 9.53936 37.7952C9.51407 37.7371 9.48878 37.6814 9.46475 37.622C9.43945 37.5625 9.41542 37.5031 9.39266 37.4437C9.36863 37.3842 9.34461 37.3248 9.32311 37.2641C9.27758 37.1439 9.23458 37.0225 9.19538 36.8999C9.17514 36.8354 9.15364 36.7721 9.13594 36.7051C9.13341 36.6963 9.12961 36.6861 9.12708 36.6773C9.1157 36.6419 9.10559 36.6065 9.09547 36.5685C9.07776 36.5091 9.06132 36.4509 9.04615 36.3927C9.04362 36.3801 9.03982 36.3687 9.0373 36.3561C9.02465 36.3067 9.012 36.2587 9.00062 36.2106C8.99303 36.179 8.98671 36.1474 8.97912 36.1158C8.96901 36.0728 8.96015 36.031 8.9513 35.9893C8.93107 35.8945 8.9121 35.7958 8.89566 35.6984C8.89566 35.6972 8.89566 35.6972 8.89566 35.6972C8.88554 35.6415 8.87668 35.5872 8.8691 35.5328C8.86151 35.4847 8.85392 35.4367 8.8476 35.3886C8.8438 35.3658 8.84127 35.3443 8.83875 35.3216C8.83369 35.2786 8.82863 35.2318 8.82357 35.1863C8.81851 35.1458 8.81472 35.1041 8.81092 35.0623C8.80586 35.0181 8.80207 34.9738 8.79954 34.9308C8.79954 34.9194 8.79828 34.9106 8.79828 34.9005C8.79575 34.8676 8.79322 34.8334 8.79069 34.7993C8.79069 34.7854 8.78942 34.7727 8.78816 34.7588V34.75C8.78563 34.7019 8.7831 34.6538 8.78184 34.6033C8.77931 34.5666 8.77804 34.5274 8.77804 34.4882C8.77678 34.4338 8.77551 34.3794 8.77551 34.3263C8.77551 34.1202 8.7831 33.914 8.79828 33.7079C9.08662 29.9038 12.0661 26.6815 16.6024 24.5974V24.5961C20.7935 22.6688 26.3124 21.7127 32.2689 22.1655C40.9064 22.8218 48.187 26.2654 51.6256 30.7651ZM45.3213 37.5549L45.7007 37.2514C45.5869 37.34 45.4591 37.4411 45.3213 37.5549L43.853 38.7298C41.6956 40.3663 38.1179 42.5642 32.5989 43.0852L28.9024 43.1738C29.7054 43.2079 30.4769 43.2079 31.2142 43.1788C31.6897 43.1599 32.15 43.1282 32.5989 43.0852C35.8782 44.9696 45.2163 46.0142 43.853 38.7298C44.4462 38.2796 44.9318 37.8724 45.3213 37.5549ZM34.1545 32.7531C34.2898 31.7806 33.3261 30.8435 32.0008 30.6576C30.6754 30.4729 29.4917 31.1128 29.3564 32.0853C29.2198 33.0579 30.1847 33.995 31.5101 34.1796C32.8354 34.3642 34.0191 33.7256 34.1545 32.7531ZM21.4473 32.7569C21.4473 31.7742 20.3622 30.9788 19.0242 30.9788C17.6862 30.9788 16.6024 31.7742 16.6024 32.7569C16.6024 33.7382 17.6862 34.535 19.0242 34.535C20.3622 34.535 21.4473 33.7382 21.4473 32.7569Z" fill="#F8ACB1"/>
<path d="M51.5724 30.8674C53.3126 33.1704 53.8159 35.2861 53.6705 37.1806V37.1869L53.6692 37.1907C53.5554 38.6475 53.0369 40.021 52.1782 41.273V41.2742C49.9385 44.5471 45.3883 47.0107 39.7063 48.0919C36.7837 48.6496 33.5613 48.8419 30.1986 48.5889C25.1552 48.2108 20.5721 46.8918 16.9489 44.9733L16.8541 44.9227C16.7731 44.8785 16.6922 44.8342 16.6113 44.7874C21.7192 45.6853 30.1038 47.5899 37.3983 46.4669C44.4967 45.3742 50.5633 41.4133 51.5724 30.8674Z" fill="#EF7180"/>
<path d="M16.6025 44.7875C16.6859 44.8317 16.7694 44.8785 16.8541 44.9228L16.949 44.9734C20.5823 46.9311 25.1856 48.2779 30.2569 48.6624C31.3786 48.7484 32.4826 48.7838 33.5664 48.7711C33.6461 48.7711 33.7245 48.7711 33.8029 48.7673C33.9041 48.7661 34.0053 48.7648 34.1052 48.7623C34.2241 48.7585 34.3429 48.7547 34.4605 48.7509C34.6034 48.7471 34.7464 48.7408 34.888 48.7332C34.9803 48.7307 35.0714 48.7243 35.1624 48.7193C35.2598 48.7155 35.3559 48.7092 35.4533 48.7028C35.4647 48.7016 35.4761 48.7016 35.4874 48.7003C35.5608 48.6965 35.6354 48.6914 35.7087 48.6851C35.729 48.6839 35.7492 48.6839 35.7694 48.6813H35.777C35.8023 48.6801 35.8264 48.6775 35.8517 48.6763C35.9225 48.6712 35.9946 48.6649 36.0654 48.6598C36.2475 48.6447 36.4283 48.6295 36.6079 48.613C36.7243 48.6017 36.8406 48.589 36.9557 48.5764L37.0012 48.5726C37.134 48.5587 37.2655 48.5435 37.3971 48.527C37.4312 48.5232 37.4641 48.5195 37.4982 48.5169C37.5804 48.5055 37.6639 48.4954 37.7461 48.4853C37.8055 48.4777 37.8662 48.4701 37.9257 48.46C37.9371 48.4587 37.9472 48.4575 37.9586 48.4562C38.0521 48.4436 38.147 48.4309 38.2393 48.417C38.3645 48.3993 38.4884 48.3803 38.6124 48.3614C38.7452 48.3411 38.878 48.3196 39.0095 48.2969C39.1536 48.2728 39.2953 48.2488 39.4382 48.2223C39.5583 48.202 39.6772 48.178 39.7961 48.1552C39.9301 48.1299 40.0629 48.1021 40.1957 48.0756C40.2589 48.0617 40.3222 48.049 40.3842 48.0351C40.4006 48.0326 40.417 48.0288 40.4335 48.025C40.5701 47.9959 40.7054 47.9655 40.8407 47.9339C41.0127 47.8947 41.1834 47.8542 41.3529 47.8112C41.4287 47.7935 41.5046 47.7746 41.5792 47.7543C41.6551 47.7354 41.731 47.7151 41.8056 47.6962C41.9485 47.657 42.0914 47.619 42.2318 47.5786C42.2963 47.5609 42.3608 47.5419 42.4253 47.5229C42.5151 47.4976 42.6049 47.4711 42.6934 47.4432C42.8072 47.4116 42.9198 47.3749 43.0323 47.3395C43.0462 47.3357 43.0601 47.332 43.0741 47.3256C43.1272 47.3105 43.1803 47.2927 43.2321 47.2763C43.3042 47.2535 43.375 47.2295 43.4459 47.2055C43.5736 47.1638 43.7013 47.1195 43.8265 47.0765C43.9049 47.0487 43.9833 47.0208 44.0605 46.993C44.063 46.9918 44.0643 46.9918 44.0668 46.9918C44.1338 46.9677 44.1996 46.9424 44.2654 46.9171C44.4196 46.8602 44.5714 46.8021 44.7219 46.7426C44.842 46.6958 44.9609 46.6478 45.0785 46.5997C45.1316 46.5782 45.1835 46.558 45.2341 46.5352C45.2493 46.5289 45.2657 46.5213 45.2809 46.515C45.3365 46.4935 45.3922 46.4682 45.4465 46.4442C45.5009 46.4227 45.5553 46.3986 45.6097 46.3733C45.683 46.3417 45.7551 46.3089 45.8272 46.276C45.8993 46.2444 45.9701 46.2115 46.0409 46.1786C46.1117 46.1457 46.1826 46.1116 46.2521 46.0774C46.3166 46.0471 46.3798 46.018 46.4431 45.9838C46.4494 45.9813 46.4557 45.9788 46.462 45.975C46.5316 45.9408 46.6012 45.9067 46.6694 45.8713C46.7377 45.8384 46.806 45.8017 46.8731 45.7676C46.9957 45.7043 47.1171 45.6399 47.236 45.5728C47.3562 45.5071 47.4763 45.44 47.5939 45.3717C47.6382 45.3477 47.6824 45.3212 47.7267 45.2946C47.7887 45.2605 47.8494 45.2225 47.9101 45.1858C47.9834 45.1428 48.0568 45.0973 48.1289 45.0531C48.1719 45.0265 48.2136 44.9999 48.2553 44.9734C48.311 44.938 48.3666 44.9026 48.421 44.8672C48.4842 44.8267 48.5462 44.7875 48.6069 44.7445C48.6689 44.704 48.7296 44.6623 48.7903 44.6205C48.9117 44.5371 49.0318 44.4523 49.1494 44.3676C49.2253 44.3132 49.2986 44.2589 49.372 44.2032C49.5326 44.0831 49.6882 43.9604 49.8399 43.8377C49.9107 43.7796 49.9803 43.7214 50.0486 43.6645C50.1207 43.6025 50.1902 43.5418 50.2598 43.4798C50.3331 43.4153 50.4052 43.3508 50.476 43.2863C50.5405 43.2269 50.6038 43.1675 50.6657 43.1068C50.729 43.0473 50.7922 42.9854 50.8529 42.9247C50.901 42.8766 50.949 42.8273 50.9958 42.7792C51.0363 42.7375 51.0767 42.6958 51.116 42.654C51.226 42.5377 51.3322 42.4201 51.4359 42.3012C51.4852 42.2443 51.5333 42.1874 51.5813 42.1317C51.6382 42.0634 51.6939 41.9964 51.747 41.9268C51.8014 41.8598 51.8545 41.7915 51.9064 41.722C51.9367 41.6828 51.9658 41.6423 51.9949 41.6031C52.0316 41.555 52.0657 41.507 52.0998 41.4589C52.1365 41.4083 52.1719 41.3578 52.2073 41.3059C52.5754 41.5955 52.9244 41.8889 53.257 42.1836C53.4593 45.0025 49.6414 48.9064 43.4965 50.7629C37.7764 52.493 30.0393 52.4474 21.6484 48.1059C21.637 48.0996 21.6244 48.0933 21.613 48.0869C19.6262 47.055 17.6015 45.784 15.5579 44.2361C15.5566 44.2348 15.5553 44.2336 15.5528 44.2336L15.6552 44.226H15.6565C15.7336 44.274 15.812 44.3208 15.8905 44.3689C15.9815 44.4233 16.0726 44.4789 16.1649 44.5333C16.2054 44.5573 16.2471 44.5813 16.2888 44.6054C16.3963 44.6661 16.5038 44.7268 16.6113 44.7875C16.6075 44.7875 16.6062 44.7875 16.6025 44.7875Z" fill="#DDB590"/>
<path d="M51.6534 0C53.0635 1.99055 53.023 4.65011 52.5791 6.83668C51.1058 7.48798 49.9815 8.35426 49.3138 9.02452C47.408 7.2616 45.2189 5.89199 42.8932 4.96754H42.8957C47.2739 3.47778 48.6182 2.74049 51.6534 0Z" fill="#B8A794"/>
<path d="M46.6745 53.6665C48.8409 56.7624 48.9534 57.7045 48.6183 59.5648H43.6647C45.1696 57.8044 45.7008 56.9508 46.6745 53.6665Z" fill="#DDB590"/>
<path d="M45.7007 37.2515L45.3213 37.555C45.4591 37.4412 45.5869 37.34 45.7007 37.2515Z" fill="#F8ACB1"/>
<path d="M43.8531 38.7298L45.3214 37.5549C44.9319 37.8724 44.4463 38.2796 43.8531 38.7298Z" fill="#F8ACB1"/>
<path d="M43.853 38.7297C45.2163 46.0141 35.8782 44.9695 32.5989 43.0852C38.1179 42.5641 41.6956 40.3662 43.853 38.7297Z" fill="#A84547"/>
<path d="M42.3646 14.7546C43.4901 14.7546 44.4032 16.3013 44.4032 18.2109C44.4032 20.1205 43.4901 21.6672 42.3646 21.6672C41.2378 21.6672 40.326 20.1205 40.326 18.2109C40.326 16.3013 41.2378 14.7546 42.3646 14.7546ZM43.6647 17.1575C43.6647 16.5745 43.3194 16.1028 42.8958 16.1028C42.4708 16.1028 42.1268 16.5745 42.1268 17.1575C42.1268 17.7392 42.4708 18.2109 42.8958 18.2109C43.3194 18.2109 43.6647 17.7392 43.6647 17.1575Z" fill="#201E1A"/>
<path d="M42.8957 16.1028C43.3194 16.1028 43.6646 16.5745 43.6646 17.1575C43.6646 17.7392 43.3194 18.211 42.8957 18.211C42.4708 18.211 42.1268 17.7392 42.1268 17.1575C42.1268 16.5745 42.4708 16.1028 42.8957 16.1028Z" fill="white"/>
<path d="M32.0008 30.6575C33.3262 30.8434 34.2898 31.7805 34.1545 32.753C34.0192 33.7255 32.8355 34.3641 31.5101 34.1795C30.1848 33.9949 29.2199 33.0578 29.3565 32.0853C29.4918 31.1127 30.6755 30.4728 32.0008 30.6575Z" fill="#A84547"/>
<path d="M32.599 43.0852L31.2142 43.1788C30.4769 43.2079 29.7055 43.2079 28.9024 43.1737L32.599 43.0852Z" fill="#F8ACB1"/>
<path d="M31.2142 43.1788L32.599 43.0852C32.15 43.1282 31.6897 43.1598 31.2142 43.1788Z" fill="#F8ACB1"/>
<path d="M31.7554 4.04688C31.7554 4.15563 31.7542 4.26313 31.7516 4.36936C31.7516 4.37695 31.7516 4.38454 31.7504 4.39086C31.7504 4.42248 31.7504 4.45409 31.7478 4.48444V4.4895C31.7478 4.49077 31.7478 4.49203 31.7478 4.4933C31.7478 4.49962 31.7478 4.50468 31.7478 4.511C31.7466 4.59699 31.7428 4.68299 31.7377 4.76899C31.7377 4.77405 31.7377 4.77911 31.7364 4.78543C31.7364 4.79302 31.7364 4.80187 31.7352 4.80946C31.7339 4.85119 31.7314 4.89292 31.7289 4.93466C31.7276 4.95868 31.7251 4.98271 31.7238 5.00548C31.7238 5.01433 31.7225 5.02318 31.7225 5.0333C31.72 5.09021 31.7162 5.14585 31.7112 5.2015V5.20276C31.7048 5.29002 31.6972 5.37728 31.6884 5.46454C31.6871 5.48478 31.6846 5.50754 31.6821 5.52904C31.6808 5.53916 31.6808 5.54801 31.6795 5.55686C31.6783 5.56951 31.677 5.58216 31.6757 5.59354C31.6669 5.66942 31.6593 5.74277 31.6492 5.81612C31.6429 5.8667 31.6365 5.91602 31.6302 5.96534C31.6214 6.03363 31.6125 6.09813 31.6011 6.16389C31.5961 6.20183 31.5897 6.23977 31.5834 6.27898C31.5809 6.29415 31.5784 6.31059 31.5758 6.32577C31.572 6.3498 31.5695 6.37256 31.5644 6.39533C31.5594 6.42821 31.5531 6.45982 31.5467 6.49144C31.5417 6.52052 31.5366 6.54961 31.5303 6.5787C31.5303 6.58123 31.529 6.58376 31.529 6.58629C31.5227 6.61917 31.5177 6.65205 31.5101 6.68367C31.4898 6.79495 31.4671 6.90371 31.4418 7.01121C31.4342 7.05041 31.4241 7.09214 31.414 7.13135C31.4127 7.13767 31.4102 7.14273 31.4089 7.14906C31.4051 7.16676 31.4013 7.18573 31.3963 7.20343C31.395 7.20723 31.395 7.20976 31.3937 7.21355C31.3925 7.21861 31.3912 7.2262 31.3899 7.22999C31.376 7.29196 31.3608 7.35393 31.3431 7.41337C31.3419 7.42475 31.3381 7.43487 31.3343 7.44498C31.314 7.52213 31.2926 7.59927 31.2698 7.67515C31.2571 7.72068 31.2445 7.7662 31.2306 7.81047C31.2205 7.84208 31.2116 7.8737 31.2015 7.90405C31.199 7.91037 31.1977 7.9167 31.1952 7.92302V7.92428C31.1939 7.92808 31.1926 7.93187 31.1914 7.93567C31.1914 7.9382 31.1901 7.9382 31.1901 7.93946C31.1889 7.93946 31.1889 7.94073 31.1889 7.94073C31.1775 7.98246 31.1636 8.02166 31.1496 8.06213C31.1471 8.07225 31.1433 8.0811 31.1408 8.08869C31.1231 8.14433 31.1041 8.19619 31.0851 8.2493C31.075 8.28092 31.0636 8.31379 31.051 8.34541C31.0346 8.39347 31.0169 8.44026 30.9979 8.48705C30.9966 8.49211 30.9954 8.49717 30.9916 8.50223C30.9726 8.55535 30.9524 8.60593 30.9309 8.65778C30.9296 8.65904 30.9296 8.66157 30.9283 8.66537C30.9207 8.6856 30.9119 8.7071 30.9018 8.7286C30.8992 8.73619 30.8954 8.74504 30.8917 8.75263C30.8777 8.7893 30.8613 8.82724 30.8436 8.86518C30.8385 8.88036 30.8322 8.89553 30.8246 8.91071C30.7993 8.97015 30.7728 9.02958 30.745 9.08776C30.7159 9.15226 30.6868 9.21549 30.6564 9.27746C30.6172 9.35713 30.578 9.43554 30.5376 9.51395C30.5085 9.56833 30.4806 9.62144 30.4516 9.67456C30.4098 9.75044 30.3681 9.82378 30.3251 9.8984C30.2796 9.97681 30.2328 10.054 30.1847 10.1298C30.1809 10.1374 30.1759 10.1463 30.1695 10.1539C30.1544 10.1792 30.1392 10.2032 30.1228 10.2297C30.1126 10.2462 30.1013 10.2639 30.0886 10.2816C30.0848 10.2879 30.081 10.2955 30.076 10.3018C30.0532 10.3385 30.0292 10.3739 30.0039 10.4093C30.0039 10.4118 30.0026 10.4144 30.0001 10.4156C29.971 10.4599 29.9419 10.5016 29.9116 10.5434C29.8369 10.6521 29.7598 10.7596 29.6789 10.8633C29.6548 10.8949 29.6308 10.9266 29.6042 10.9582C29.5752 10.9974 29.5448 11.0341 29.5145 11.0707C29.4727 11.1226 29.431 11.1744 29.3867 11.2237C29.345 11.2731 29.302 11.3237 29.259 11.3717C29.2514 11.3806 29.2438 11.3882 29.2362 11.397C29.235 11.3983 29.2337 11.3995 29.2337 11.4008C29.192 11.4476 29.1515 11.4919 29.1098 11.5361C29.0718 11.5766 29.0339 11.6158 28.9959 11.655C28.9896 11.6601 28.9846 11.6664 28.9795 11.6714C28.9517 11.7005 28.9239 11.7296 28.8948 11.7574C28.8859 11.7663 28.8771 11.7764 28.8682 11.7853C28.8202 11.8346 28.7734 11.8801 28.7253 11.9244L28.7215 11.9294C28.7177 11.9345 28.7127 11.9383 28.7089 11.9408C28.7064 11.9433 28.7038 11.9446 28.7013 11.9471C28.7 11.9484 28.7 11.9484 28.6988 11.9497C28.6381 12.0091 28.5761 12.0647 28.5141 12.1191C28.4926 12.1394 28.4699 12.1596 28.4484 12.1786C28.4446 12.1811 28.4408 12.1849 28.437 12.1874C28.4117 12.2102 28.3864 12.2317 28.3598 12.2544C28.3055 12.3025 28.2511 12.3493 28.1954 12.3923C28.1259 12.4492 28.0551 12.5048 27.9842 12.5617C27.9766 12.5668 27.9703 12.5719 27.9627 12.5782C27.9463 12.5908 27.9286 12.6035 27.9109 12.6174C27.8401 12.6705 27.7705 12.7224 27.6984 12.7755C27.6516 12.8084 27.6036 12.8412 27.5555 12.8741C27.5479 12.8804 27.5403 12.8868 27.5315 12.8906C27.4885 12.9209 27.4455 12.95 27.4012 12.9803C27.3595 13.0082 27.3165 13.036 27.2748 13.0638C27.2444 13.0828 27.2153 13.1018 27.185 13.1195C27.1445 13.1447 27.104 13.1713 27.0636 13.1941C26.9991 13.2333 26.9333 13.2725 26.8688 13.3104C26.8486 13.3218 26.8271 13.3344 26.8068 13.3446C26.7487 13.3787 26.6905 13.4116 26.6311 13.4432C26.5767 13.4723 26.5223 13.5026 26.4679 13.5305C26.3933 13.5697 26.32 13.6076 26.2441 13.6443C26.2188 13.6557 26.1935 13.6683 26.1695 13.6797C26.1353 13.6974 26.0999 13.7138 26.0645 13.7315C25.9203 13.7986 25.7762 13.8631 25.6307 13.925C25.5776 13.9465 25.5245 13.9693 25.4701 13.9895C25.4145 14.0123 25.3588 14.0351 25.3019 14.0566C25.269 14.0705 25.2374 14.0831 25.2045 14.0945C25.1843 14.1021 25.1641 14.1084 25.1438 14.116C25.1362 14.1185 25.1299 14.1223 25.1223 14.1236C25.0831 14.1388 25.0452 14.1527 25.006 14.1666C24.9554 14.1843 24.9061 14.202 24.8555 14.2184C24.6582 14.2855 24.4622 14.3462 24.2649 14.4031C24.2194 14.4157 24.1751 14.4284 24.1296 14.4397C24.0701 14.4562 24.012 14.4714 23.9525 14.4865C23.845 14.5144 23.7375 14.5397 23.6313 14.5637C23.5807 14.5751 23.5301 14.5864 23.4796 14.5966C23.4226 14.6092 23.367 14.6219 23.3101 14.6332C23.2342 14.6484 23.1596 14.6623 23.0837 14.675C23.0293 14.6851 22.975 14.6965 22.9206 14.7041C22.7979 14.7243 22.6752 14.7433 22.5538 14.7597C22.4324 14.7761 22.311 14.7901 22.1909 14.804C22.1175 14.8116 22.0454 14.8191 21.9721 14.8255C21.8836 14.8331 21.7951 14.8406 21.7065 14.847C21.6155 14.852 21.5257 14.8571 21.4372 14.8621C21.3651 14.8647 21.2943 14.8672 21.2247 14.8697C21.2019 14.8697 21.1792 14.8697 21.1564 14.871C21.0742 14.8723 20.9933 14.8735 20.9136 14.8735C20.3521 14.8735 19.826 14.8318 19.3517 14.7546C19.6502 14.1223 19.9664 13.5191 20.299 12.9424C21.2917 11.2275 22.4299 9.76435 23.6768 8.54143C24.2687 7.95843 24.8859 7.43234 25.5245 6.95556C25.6358 6.8721 25.7483 6.79116 25.8609 6.71149C26.0519 6.57617 26.2453 6.44465 26.4414 6.31818C26.4515 6.31186 26.4616 6.30427 26.473 6.29795C26.5716 6.23345 26.6715 6.17022 26.7727 6.10825C26.8789 6.04375 26.9852 5.97926 27.0914 5.91729C27.1989 5.85406 27.3051 5.79335 27.4126 5.73265C27.5214 5.67321 27.6289 5.61377 27.7376 5.55686C27.8464 5.49996 27.9551 5.44304 28.0639 5.38866C28.2827 5.27864 28.5027 5.17368 28.7241 5.07503C28.8341 5.02445 28.9454 4.97639 29.0567 4.9296C29.1692 4.88154 29.2805 4.83601 29.3931 4.79175C29.5043 4.74622 29.6169 4.70323 29.7295 4.66149C29.8433 4.61976 29.9558 4.57929 30.0696 4.53882C30.2947 4.46041 30.5224 4.38706 30.75 4.31751C30.7513 4.31751 30.7513 4.31751 30.7525 4.31751C31.0839 4.21634 31.419 4.12781 31.7554 4.04688Z" fill="#2D2E29"/>
<path d="M31.6492 5.81608C31.6593 5.74273 31.6669 5.66938 31.6758 5.59351C31.6682 5.66938 31.6593 5.74273 31.6492 5.81608Z" fill="#EE9BA0"/>
<path d="M31.3933 7.21362C31.3933 7.21812 31.3922 7.22373 31.39 7.22823C31.3911 7.22486 31.3922 7.21812 31.3933 7.21362Z" fill="#EE9BA0"/>
<path d="M31.2015 7.90337C31.2116 7.87327 31.2204 7.84191 31.2304 7.81055C31.2216 7.84191 31.2116 7.87201 31.2015 7.90337Z" fill="#EE9BA0"/>
<path d="M30.7501 4.3175C30.6362 4.35165 30.5237 4.38706 30.4099 4.42374C30.296 4.46041 30.1822 4.49835 30.0697 4.53882C29.9559 4.57929 29.8433 4.61976 29.7295 4.66149C29.6169 4.70322 29.5044 4.74622 29.3931 4.79175C29.2805 4.83601 29.168 4.88154 29.0567 4.9296C28.9454 4.97512 28.8341 5.02445 28.7241 5.07503C28.5028 5.17241 28.2815 5.27737 28.0639 5.38866C27.9539 5.44178 27.8452 5.49742 27.7377 5.55686C27.6289 5.61377 27.5201 5.67194 27.4127 5.73265C27.3052 5.79208 27.1977 5.85279 27.0914 5.91729C26.9839 5.97799 26.8777 6.04248 26.7727 6.10825C26.6728 6.16895 26.5729 6.23218 26.473 6.29794C26.4616 6.30427 26.4515 6.31185 26.4414 6.31818C26.2466 6.44338 26.0532 6.5749 25.8609 6.71149C25.7484 6.79116 25.6358 6.87209 25.5245 6.95556C24.5052 4.04687 24.8252 2.48503 26.6577 0C28.7039 0.943427 29.8711 2.16002 30.7501 4.3175Z" fill="#B8A794"/>
<path d="M30.4098 4.42362C30.5236 4.38694 30.6362 4.35153 30.75 4.31738C30.5224 4.38694 30.2947 4.46029 30.0696 4.5387C30.1822 4.49823 30.296 4.46029 30.4098 4.42362Z" fill="#EE9BA0"/>
<path d="M30.745 9.08765C30.7311 9.12053 30.7159 9.15467 30.7008 9.18755C30.6856 9.21791 30.6704 9.24699 30.6565 9.27734C30.6868 9.21538 30.7159 9.15214 30.745 9.08765Z" fill="#EE9BA0"/>
<path d="M30.0039 10.4084C30.029 10.3733 30.0528 10.3381 30.0754 10.3018C30.0528 10.3381 30.029 10.3745 30.0039 10.4084Z" fill="#EE9BA0"/>
<path d="M29.7295 4.66138C29.617 4.70311 29.5044 4.74611 29.3931 4.79164C29.5044 4.74611 29.617 4.70311 29.7295 4.66138Z" fill="#EE9BA0"/>
<path d="M29.3931 4.79175C29.2805 4.83601 29.1693 4.88154 29.0567 4.9296C29.168 4.88154 29.2805 4.83601 29.3931 4.79175Z" fill="#EE9BA0"/>
<path d="M29.1098 11.5351C29.1512 11.4912 29.1913 11.4473 29.2327 11.4009C29.1926 11.4473 29.1512 11.4899 29.1098 11.5351Z" fill="#EE9BA0"/>
<path d="M29.1089 11.5361C29.1026 11.5437 29.0963 11.5512 29.0888 11.5587C29.0587 11.5901 29.0273 11.6227 28.996 11.6541C29.0336 11.6152 29.0712 11.5763 29.1089 11.5361Z" fill="#EE9BA0"/>
<path d="M29.0567 4.92969C28.9454 4.97648 28.8341 5.02454 28.7241 5.07512C28.8341 5.02454 28.9454 4.97521 29.0567 4.92969Z" fill="#EE9BA0"/>
<path d="M28.9796 11.6696C28.984 11.6651 28.9885 11.6595 28.9942 11.655C28.9908 11.6606 28.9852 11.6651 28.9796 11.6696Z" fill="#EE9BA0"/>
<path d="M28.9786 11.6714C28.9573 11.6952 28.9347 11.7178 28.9121 11.7404C28.8983 11.7554 28.8833 11.7692 28.8682 11.7843C28.877 11.7755 28.8858 11.7655 28.8946 11.7567C28.9234 11.7291 28.951 11.7002 28.9786 11.6714Z" fill="#EE9BA0"/>
<path d="M28.8671 11.7852C28.8194 11.8341 28.7705 11.8817 28.7216 11.9282L28.7253 11.9231C28.773 11.8792 28.8194 11.8341 28.8671 11.7852Z" fill="#EE9BA0"/>
<path d="M28.7014 11.9473C28.7039 11.9448 28.7065 11.9435 28.709 11.9409C28.7052 11.9448 28.7026 11.9473 28.6988 11.9499C28.7001 11.9486 28.7001 11.9486 28.7014 11.9473Z" fill="#EE9BA0"/>
<path d="M28.4356 12.1875C28.4256 12.1974 28.4169 12.2049 28.407 12.2136C28.3909 12.2272 28.376 12.2409 28.3599 12.2533C28.3859 12.2309 28.4107 12.2098 28.4356 12.1875Z" fill="#EE9BA0"/>
<path d="M28.7241 5.07495C28.5028 5.17359 28.2827 5.27856 28.064 5.38858C28.2815 5.27729 28.5028 5.17233 28.7241 5.07495Z" fill="#EE9BA0"/>
<path d="M27.9843 12.5618C28.0551 12.5049 28.1259 12.4492 28.1955 12.3923C28.1259 12.4518 28.0551 12.5074 27.9843 12.5618Z" fill="#EE9BA0"/>
<path d="M28.0639 5.38867C27.9552 5.44305 27.8464 5.49996 27.7377 5.55687C27.8452 5.49743 27.9539 5.44179 28.0639 5.38867Z" fill="#EE9BA0"/>
<path d="M26.6576 15.4287C27.6681 15.4287 28.4888 16.7035 28.4888 18.2742C28.4888 19.8461 27.6681 21.1196 26.6576 21.1196C25.6459 21.1196 24.8251 19.8461 24.8251 18.2742C24.8251 16.7035 25.6459 15.4287 26.6576 15.4287ZM27.6251 17.5053C27.6251 17.0803 27.4088 16.7351 27.1407 16.7351C26.8739 16.7351 26.6576 17.0803 26.6576 17.5053C26.6576 17.9302 26.8739 18.2742 27.1407 18.2742C27.4088 18.2742 27.6251 17.9302 27.6251 17.5053Z" fill="#2D2E29"/>
<path d="M27.7377 5.55688C27.6289 5.61379 27.5214 5.67323 27.4127 5.73267C27.5202 5.67197 27.6289 5.61379 27.7377 5.55688Z" fill="#EE9BA0"/>
<path d="M27.4013 12.9797C27.4452 12.9496 27.4879 12.9207 27.5305 12.8906C27.4879 12.922 27.444 12.9508 27.4013 12.9797Z" fill="#EE9BA0"/>
<path d="M27.1408 16.7351C27.4089 16.7351 27.6251 17.0804 27.6251 17.5053C27.6251 17.9302 27.4089 18.2742 27.1408 18.2742C26.8739 18.2742 26.6577 17.9302 26.6577 17.5053C26.6577 17.0804 26.8739 16.7351 27.1408 16.7351Z" fill="white"/>
<path d="M27.4127 5.73267C27.3052 5.79337 27.1989 5.85407 27.0914 5.91731C27.1977 5.85281 27.3052 5.7921 27.4127 5.73267Z" fill="#EE9BA0"/>
<path d="M27.2741 13.0637C27.2515 13.0775 27.2277 13.0926 27.2051 13.1076C27.1988 13.1114 27.1913 13.1152 27.185 13.1189C27.2151 13.1014 27.244 13.0825 27.2741 13.0637Z" fill="#EE9BA0"/>
<path d="M27.0915 5.91724C26.9852 5.9792 26.879 6.0437 26.7728 6.1082C26.8777 6.04243 26.984 5.97794 27.0915 5.91724Z" fill="#EE9BA0"/>
<path d="M26.7727 6.10815C26.6716 6.17012 26.5717 6.23335 26.473 6.29785C26.5729 6.23209 26.6728 6.16886 26.7727 6.10815Z" fill="#EE9BA0"/>
<path d="M26.4679 13.5305C26.4502 13.5406 26.4338 13.5495 26.4161 13.5583C26.4148 13.5583 26.4148 13.5583 26.4135 13.5596C26.368 13.5824 26.3225 13.6064 26.277 13.6292C26.2656 13.6342 26.2555 13.6393 26.2441 13.6443C26.32 13.6077 26.3933 13.5697 26.4679 13.5305Z" fill="#EE9BA0"/>
<path d="M26.4414 6.31812C26.2454 6.44458 26.0519 6.57611 25.861 6.71142C26.0532 6.57484 26.2467 6.44332 26.4414 6.31812Z" fill="#EE9BA0"/>
<path d="M23.6604 8.55529L23.6769 8.54139C22.4299 9.7643 21.2917 11.2275 20.299 12.9424L20.3192 12.9044C19.4112 9.50505 16.8958 7.25777 13.7355 6.98334C15.4048 6.5053 19.9512 4.57419 23.6604 8.55529Z" fill="#2D2E29"/>
<path d="M22.1909 14.804C22.1328 14.8103 22.0733 14.8166 22.0139 14.8229C22 14.8229 21.9861 14.8242 21.9722 14.8255C22.0455 14.8191 22.1176 14.8115 22.1909 14.804Z" fill="#EE9BA0"/>
<path d="M19.0242 30.9788C20.3622 30.9788 21.4473 31.7742 21.4473 32.7569C21.4473 33.7382 20.3622 34.5349 19.0242 34.5349C17.6862 34.5349 16.6024 33.7382 16.6024 32.7569C16.6024 31.7742 17.6862 30.9788 19.0242 30.9788Z" fill="#A84547"/>
<path d="M21.613 48.0869C20.6746 49.4401 19.9892 50.6883 19.4909 51.829C19.4732 51.8695 19.4568 51.9087 19.4403 51.9479C10.8154 49.7006 7.22004 46.5099 3.56015 44.0603C3.55383 44.0616 3.5475 44.0654 3.54118 44.0679C3.53612 44.0641 3.53106 44.0616 3.526 44.059C5.58485 43.0321 7.12645 40.9164 7.6007 38.8613C7.60196 38.8613 11.1999 41.6777 15.5528 44.2335C15.5553 44.2335 15.5566 44.2348 15.5579 44.2361C17.6015 45.784 19.6262 47.055 21.613 48.0869Z" fill="#FFFBEA"/>
<path d="M20.3192 12.9043L20.299 12.9423C19.9664 13.519 19.6502 14.1222 19.3518 14.7545C19.3505 14.7545 19.3505 14.7545 19.3492 14.7545C16.9477 14.7545 14.8635 13.0776 13.8113 10.6128L13.093 7.01362C13.2385 6.9605 13.3497 6.97694 13.7355 6.98327C16.8958 7.2577 19.4112 9.50498 20.3192 12.9043Z" fill="#EE9BA0"/>
<path d="M19.4378 51.9529C19.1204 52.694 18.8814 53.3871 18.7056 54.0295C18.6942 54.07 18.6841 54.1104 18.6739 54.1509C9.44961 50.5568 8.43157 49.9561 1.99072 44.6003C2.05775 44.5889 2.12477 44.5737 2.1918 44.5548C2.23606 44.5446 2.28032 44.5345 2.32459 44.5219C2.74572 44.4157 3.15293 44.2601 3.54118 44.0679C7.19854 46.52 10.8015 49.7107 19.4378 51.9529Z" fill="#DDB590"/>
<path d="M16.6113 44.7876C16.6922 44.8344 16.7731 44.8787 16.8541 44.9229C16.7693 44.8787 16.6859 44.8319 16.6024 44.7876C16.6062 44.7876 16.6075 44.7876 16.6113 44.7876Z" fill="#F8ACB1"/>
<path d="M7.54122 38.8678C7.54628 38.8741 7.55134 38.8791 7.5564 38.8842C7.08215 40.9392 5.53928 43.0563 3.48044 44.0806C3.11116 44.2653 2.72417 44.4158 2.32455 44.522C2.28028 44.5346 2.23602 44.5448 2.19176 44.5549C2.12347 44.57 2.05518 44.5852 1.98689 44.5979C1.98815 44.5991 1.98942 44.6004 1.99068 44.6004C1.96286 44.6067 1.93504 44.613 1.90721 44.6181C0.980227 43.6974 0.980227 43.6974 0.0532403 42.7743C-0.276833 40.6661 0.980227 39.9376 2.32961 39.9364C4.01032 35.9553 5.44064 36.5749 7.53996 38.8665L7.54122 38.8678Z" fill="#B7A18B"/>
</svg>
