<svg width="25" height="23" viewBox="0 0 25 23" fill="none" xmlns="http://www.w3.org/2000/svg">
<rect x="6.61076" y="4.04051" width="12.0232" height="17.9594" rx="6.01159" stroke="#A8A8A8" stroke-width="1.33333"/>
<path d="M6.12964 16.174H19.1151" stroke="#A8A8A8" stroke-width="1.33333"/>
<rect x="8.54102" y="11.1652" width="1.48406" height="1.48406" rx="0.742029" fill="#A8A8A8"/>
<path d="M6.50051 7.64056L5.6093 6.80877C4.38452 5.66564 3.58263 4.14168 3.33411 2.48486L3.16451 1.35417C3.16347 1.34724 3.17173 1.34287 3.17688 1.34762L4.9261 2.96229C5.35584 3.35897 5.83097 3.70346 6.3416 3.98858L8.74992 5.33331" stroke="#A8A8A8" stroke-width="1.33333"/>
<path d="M18.7441 7.64056L19.6353 6.80877C20.8601 5.66564 21.662 4.14168 21.9105 2.48486L22.0801 1.35417C22.0812 1.34724 22.0729 1.34287 22.0678 1.34762L20.2181 3.05501C19.8547 3.39043 19.4587 3.68869 19.036 3.94533L16.7499 5.33331" stroke="#A8A8A8" stroke-width="1.33333"/>
<rect x="15.2195" y="11.1652" width="1.48406" height="1.48406" rx="0.742029" fill="#A8A8A8"/>
<rect x="10.3965" y="17.8434" width="0.371014" height="1.85507" rx="0.185507" fill="#A8A8A8"/>
<rect x="14.4773" y="17.8434" width="0.371014" height="1.85507" rx="0.185507" fill="#A8A8A8"/>
<path d="M4.87048 6.82089L6.16321 7.53651C6.40398 7.66979 6.42094 8.00961 6.19464 8.1662L4.91894 9.04894C4.35646 9.43816 3.62544 9.48626 3.0168 9.17412L1.39369 8.34167C1.12476 8.20375 1.12476 7.81935 1.39369 7.68142L3.12548 6.79324C3.67544 6.51118 4.32974 6.52155 4.87048 6.82089Z" stroke="#A8A8A8" stroke-width="1.33333"/>
<path d="M20.3744 6.82089L19.0817 7.53651C18.8409 7.66979 18.8239 8.00961 19.0502 8.1662L20.3259 9.04894C20.8884 9.43816 21.6194 9.48626 22.2281 9.17412L23.8512 8.34167C24.1201 8.20375 24.1201 7.81935 23.8512 7.68142L22.1194 6.79324C21.5694 6.51118 20.9151 6.52155 20.3744 6.82089Z" stroke="#A8A8A8" stroke-width="1.33333"/>
</svg>
