<svg width="72" height="56" viewBox="0 0 72 56" fill="none" xmlns="http://www.w3.org/2000/svg">
<mask id="mask0_677_6784" style="mask-type:alpha" maskUnits="userSpaceOnUse" x="20" y="0" width="32" height="32">
<rect x="20" width="32" height="32" fill="#D9D9D9"/>
</mask>
<g mask="url(#mask0_677_6784)">
<path d="M37.2127 4.06641C40.0778 4.34412 42.5172 5.47978 44.5308 7.47341C46.5444 9.46703 47.6896 11.8989 47.9665 14.769H39.4076C39.2076 14.2596 38.9191 13.8181 38.5422 13.4446C38.1653 13.0711 37.7221 12.7941 37.2127 12.6135V4.06641ZM38.546 5.67154V11.7433C38.893 11.9604 39.2118 12.21 39.5024 12.492C39.793 12.7741 40.0383 13.0886 40.2383 13.4356H46.3614C45.8965 11.504 44.9605 9.83478 43.5537 8.42794C42.1469 7.02112 40.4777 6.10232 38.546 5.67154ZM34.8537 4.06641V12.6014C34.1221 12.8618 33.5375 13.3052 33.0999 13.9316C32.6623 14.558 32.4435 15.2491 32.4435 16.0047C32.4435 16.7604 32.6665 17.4386 33.1127 18.0395C33.5588 18.6403 34.1392 19.0711 34.8537 19.3317V27.9331C31.7734 27.6168 29.1999 26.3245 27.1332 24.0561C25.0665 21.7878 24.0332 19.1013 24.0332 15.9966C24.0332 12.892 25.0665 10.198 27.1332 7.91457C29.1999 5.63117 31.7734 4.34845 34.8537 4.06641ZM33.5204 5.67154C31.1221 6.21001 29.1635 7.44762 27.6447 9.38437C26.1259 11.3211 25.3665 13.5262 25.3665 15.9997C25.3665 18.4733 26.1259 20.6784 27.6447 22.6151C29.1635 24.5519 31.1221 25.7946 33.5204 26.3433V20.1536C32.8127 19.663 32.234 19.0592 31.7845 18.342C31.3349 17.625 31.1101 16.8399 31.1101 15.9869C31.1101 15.1339 31.3306 14.3446 31.7717 13.619C32.2127 12.8933 32.7956 12.2852 33.5204 11.7946V5.67154ZM39.4076 17.1792H47.9665C47.6862 20.0429 46.5397 22.4811 44.5271 24.4936C42.5145 26.5062 40.0764 27.6527 37.2127 27.9331V19.3274C37.734 19.1469 38.1802 18.8711 38.5511 18.5C38.9221 18.1289 39.2076 17.6886 39.4076 17.1792ZM40.2383 18.5126C40.0093 18.8425 39.7567 19.1485 39.4806 19.4305C39.2046 19.7126 38.893 19.9536 38.546 20.1536V26.3279C40.4947 25.8801 42.1682 24.9527 43.5665 23.5459C44.9648 22.1391 45.8965 20.4613 46.3614 18.5126H40.2383Z" fill="#2EA1D9"/>
</g>
<g filter="url(#filter0_d_677_6784)">
<path d="M23 36H49C49 37.1046 48.1046 38 47 38H25C23.8954 38 23 37.1046 23 36Z" fill="#2EA1D9"/>
</g>
<defs>
<filter id="filter0_d_677_6784" x="0" y="8" width="72" height="48" filterUnits="userSpaceOnUse" color-interpolation-filters="sRGB">
<feFlood flood-opacity="0" result="BackgroundImageFix"/>
<feColorMatrix in="SourceAlpha" type="matrix" values="0 0 0 0 0 0 0 0 0 0 0 0 0 0 0 0 0 0 127 0" result="hardAlpha"/>
<feMorphology radius="3" operator="dilate" in="SourceAlpha" result="effect1_dropShadow_677_6784"/>
<feOffset dy="-5"/>
<feGaussianBlur stdDeviation="10"/>
<feComposite in2="hardAlpha" operator="out"/>
<feColorMatrix type="matrix" values="0 0 0 0 0 0 0 0 0 0.423529 0 0 0 0 1 0 0 0 0.5 0"/>
<feBlend mode="normal" in2="BackgroundImageFix" result="effect1_dropShadow_677_6784"/>
<feBlend mode="normal" in="SourceGraphic" in2="effect1_dropShadow_677_6784" result="shape"/>
</filter>
</defs>
</svg>
