<svg width="24" height="24" viewBox="0 0 24 24" fill="none" xmlns="http://www.w3.org/2000/svg">
<path d="M13.2127 0.0666504C16.0778 0.344362 18.5172 1.48003 20.5308 3.47365C22.5444 5.46727 23.6896 7.89913 23.9665 10.7692H15.4076C15.2076 10.2598 14.9191 9.81836 14.5422 9.44485C14.1653 9.07134 13.7221 8.79431 13.2127 8.61375V0.0666504ZM14.546 1.67178V7.74355C14.893 7.96066 15.2118 8.21024 15.5024 8.49228C15.793 8.77433 16.0383 9.08886 16.2383 9.43588H22.3614C21.8965 7.50426 20.9605 5.83503 19.5537 4.42818C18.1469 3.02136 16.4777 2.10256 14.546 1.67178ZM10.8537 0.0666504V8.60162C10.1221 8.86206 9.53747 9.30548 9.09987 9.93188C8.66227 10.5583 8.44347 11.2493 8.44347 12.005C8.44347 12.7606 8.66655 13.4389 9.1127 14.0397C9.55884 14.6406 10.1392 15.0713 10.8537 15.332V23.9333C7.77337 23.6171 5.19987 22.3248 3.1332 20.0564C1.06654 17.788 0.0332031 15.1015 0.0332031 11.9969C0.0332031 8.89226 1.06654 6.19824 3.1332 3.91482C5.19987 1.63142 7.77337 0.348695 10.8537 0.0666504ZM9.52037 1.67178C7.12208 2.21025 5.16354 3.44786 3.64474 5.38462C2.12594 7.32135 1.36654 9.52647 1.36654 12C1.36654 14.4735 2.12594 16.6786 3.64474 18.6154C5.16354 20.5521 7.12208 21.7949 9.52037 22.3436V16.1539C8.81268 15.6633 8.23405 15.0594 7.78447 14.3423C7.33489 13.6252 7.1101 12.8402 7.1101 11.9872C7.1101 11.1342 7.33063 10.3449 7.77167 9.61922C8.21269 8.89357 8.79559 8.28545 9.52037 7.79485V1.67178ZM15.4076 13.1795H23.9665C23.6862 16.0432 22.5397 18.4813 20.5271 20.4939C18.5145 22.5065 16.0764 23.653 13.2127 23.9333V15.3277C13.734 15.1472 14.1802 14.8713 14.5511 14.5002C14.9221 14.1291 15.2076 13.6889 15.4076 13.1795ZM16.2383 14.5128C16.0093 14.8427 15.7567 15.1487 15.4806 15.4308C15.2046 15.7128 14.893 15.9539 14.546 16.1539V22.3282C16.4947 21.8803 18.1682 20.953 19.5665 19.5462C20.9648 18.1393 21.8965 16.4615 22.3614 14.5128H16.2383Z" fill="#2EA1D9"/>
</svg>
