<svg width="24" height="24" viewBox="0 0 24 24" fill="none" xmlns="http://www.w3.org/2000/svg">
<mask id="mask0_473_17583" style="mask-type:alpha" maskUnits="userSpaceOnUse" x="0" y="0" width="24" height="24">
<rect width="24" height="24" fill="#D9D9D9"/>
</mask>
<g mask="url(#mask0_473_17583)">
<path d="M5.61538 21.0001C5.15513 21.0001 4.77083 20.8459 4.4625 20.5376C4.15417 20.2292 4 19.8449 4 19.3847V6.61544C4 6.15519 4.15417 5.7709 4.4625 5.46256C4.77083 5.15423 5.15513 5.00006 5.61538 5.00006H7.3846V2.76929H8.46152V5.00006H15.6154V2.76929H16.6154V5.00006H18.3846C18.8449 5.00006 19.2292 5.15423 19.5375 5.46256C19.8458 5.7709 20 6.15519 20 6.61544V19.3847C20 19.8449 19.8458 20.2292 19.5375 20.5376C19.2292 20.8459 18.8449 21.0001 18.3846 21.0001H5.61538ZM5.61538 20.0001H18.3846C18.5385 20.0001 18.6795 19.936 18.8077 19.8078C18.9359 19.6795 19 19.5385 19 19.3847V10.6154H5V19.3847C5 19.5385 5.0641 19.6795 5.1923 19.8078C5.32052 19.936 5.46154 20.0001 5.61538 20.0001ZM5 9.61544H19V6.61544C19 6.4616 18.9359 6.32058 18.8077 6.19236C18.6795 6.06416 18.5385 6.00006 18.3846 6.00006H5.61538C5.46154 6.00006 5.32052 6.06416 5.1923 6.19236C5.0641 6.32058 5 6.4616 5 6.61544V9.61544Z" fill="#A8A8A8"/>
</g>
</svg>
