<svg width="30" height="30" viewBox="0 0 21 20" fill="none" xmlns="http://www.w3.org/2000/svg">
<path d="M11.7192 14.1665H9.28085C9.0261 14.1665 8.81207 13.9749 8.78394 13.7218L8.06171 7.22172C8.0288 6.92554 8.26064 6.6665 8.55865 6.6665H12.4414C12.7394 6.6665 12.9713 6.92554 12.9384 7.22172L12.2161 13.7218C12.1879 13.9749 11.9739 14.1665 11.7192 14.1665Z" stroke="white" stroke-width="1.5" stroke-linecap="round"/>
<path d="M4.24996 5.83317C5.40055 5.83317 6.33329 4.90043 6.33329 3.74984C6.33329 2.59925 5.40055 1.6665 4.24996 1.6665C3.09937 1.6665 2.16663 2.59925 2.16663 3.74984C2.16663 4.90043 3.09937 5.83317 4.24996 5.83317Z" stroke="white" stroke-width="1.5" stroke-miterlimit="1.5" stroke-linecap="round" stroke-linejoin="round"/>
<path d="M4.25 3.75L8 6.66667" stroke="white" stroke-width="1.5" stroke-linecap="round" stroke-linejoin="round"/>
<path d="M4.24988 16.2498L8.41664 12.9165" stroke="white" stroke-width="1.5" stroke-linecap="round" stroke-linejoin="round"/>
<path d="M16.75 3.75L13 6.66667" stroke="white" stroke-width="1.5" stroke-linecap="round" stroke-linejoin="round"/>
<path d="M16.75 16.2498L12.5834 12.9165" stroke="white" stroke-width="1.5" stroke-linecap="round" stroke-linejoin="round"/>
<path d="M4.24996 18.3332C5.40055 18.3332 6.33329 17.4004 6.33329 16.2498C6.33329 15.0993 5.40055 14.1665 4.24996 14.1665C3.09937 14.1665 2.16663 15.0993 2.16663 16.2498C2.16663 17.4004 3.09937 18.3332 4.24996 18.3332Z" stroke="white" stroke-width="1.5" stroke-miterlimit="1.5" stroke-linecap="round" stroke-linejoin="round"/>
<path d="M16.75 5.83317C17.9005 5.83317 18.8333 4.90043 18.8333 3.74984C18.8333 2.59925 17.9005 1.6665 16.75 1.6665C15.5994 1.6665 14.6666 2.59925 14.6666 3.74984C14.6666 4.90043 15.5994 5.83317 16.75 5.83317Z" stroke="white" stroke-width="1.5" stroke-miterlimit="1.5" stroke-linecap="round" stroke-linejoin="round"/>
<path d="M16.75 18.3332C17.9005 18.3332 18.8333 17.4004 18.8333 16.2498C18.8333 15.0993 17.9005 14.1665 16.75 14.1665C15.5994 14.1665 14.6666 15.0993 14.6666 16.2498C14.6666 17.4004 15.5994 18.3332 16.75 18.3332Z" stroke="white" stroke-width="1.5" stroke-miterlimit="1.5" stroke-linecap="round" stroke-linejoin="round"/>
</svg>
