<svg width="32" height="32" viewBox="0 0 32 32" fill="none" xmlns="http://www.w3.org/2000/svg">
<mask id="mask0_669_10467" style="mask-type:alpha" maskUnits="userSpaceOnUse" x="0" y="0" width="32" height="32">
<rect width="32" height="32" fill="#D9D9D9"/>
</mask>
<g mask="url(#mask0_669_10467)">
<path d="M17.2127 4.06665C20.0778 4.34436 22.5172 5.48003 24.5308 7.47365C26.5444 9.46727 27.6896 11.8991 27.9665 14.7692H19.4076C19.2076 14.2598 18.9191 13.8184 18.5422 13.4449C18.1653 13.0713 17.7221 12.7943 17.2127 12.6138V4.06665ZM18.546 5.67178V11.7436C18.893 11.9607 19.2118 12.2102 19.5024 12.4923C19.793 12.7743 20.0383 13.0889 20.2383 13.4359H26.3614C25.8965 11.5043 24.9605 9.83503 23.5537 8.42818C22.1469 7.02136 20.4777 6.10256 18.546 5.67178ZM14.8537 4.06665V12.6016C14.1221 12.8621 13.5375 13.3055 13.0999 13.9319C12.6623 14.5583 12.4435 15.2493 12.4435 16.005C12.4435 16.7606 12.6665 17.4389 13.1127 18.0397C13.5588 18.6406 14.1392 19.0713 14.8537 19.332V27.9333C11.7734 27.6171 9.19987 26.3248 7.1332 24.0564C5.06654 21.788 4.0332 19.1015 4.0332 15.9969C4.0332 12.8923 5.06654 10.1982 7.1332 7.91482C9.19987 5.63142 11.7734 4.34869 14.8537 4.06665ZM13.5204 5.67178C11.1221 6.21025 9.16354 7.44786 7.64474 9.38462C6.12594 11.3214 5.36654 13.5265 5.36654 16C5.36654 18.4735 6.12594 20.6786 7.64474 22.6154C9.16354 24.5521 11.1221 25.7949 13.5204 26.3436V20.1539C12.8127 19.6633 12.234 19.0594 11.7845 18.3423C11.3349 17.6252 11.1101 16.8402 11.1101 15.9872C11.1101 15.1342 11.3306 14.3449 11.7717 13.6192C12.2127 12.8936 12.7956 12.2855 13.5204 11.7949V5.67178ZM19.4076 17.1795H27.9665C27.6862 20.0432 26.5397 22.4813 24.5271 24.4939C22.5145 26.5065 20.0764 27.653 17.2127 27.9333V19.3277C17.734 19.1472 18.1802 18.8713 18.5511 18.5002C18.9221 18.1291 19.2076 17.6889 19.4076 17.1795ZM20.2383 18.5128C20.0093 18.8427 19.7567 19.1487 19.4806 19.4308C19.2046 19.7128 18.893 19.9539 18.546 20.1539V26.3282C20.4947 25.8803 22.1682 24.953 23.5665 23.5462C24.9648 22.1393 25.8965 20.4615 26.3614 18.5128H20.2383Z" fill="#A8A8A8"/>
</g>
</svg>
