<svg width="24" height="24" viewBox="0 0 24 24" fill="none" xmlns="http://www.w3.org/2000/svg">
<mask id="mask0_476_27634" style="mask-type:alpha" maskUnits="userSpaceOnUse" x="0" y="0" width="24" height="24">
<rect width="24" height="24" fill="#D9D9D9"/>
</mask>
<g mask="url(#mask0_476_27634)">
<path d="M20.5923 12.5H9.15385V11.5H20.5923L18.5038 9.41155L19.2115 8.6923L22.5193 12L19.2115 15.3077L18.5038 14.5885L20.5923 12.5ZM15.4038 8.73078V5.61537C15.4038 5.43589 15.3462 5.28846 15.2308 5.17307C15.1154 5.05769 14.968 5 14.7885 5H5.61538C5.43589 5 5.28846 5.05769 5.17308 5.17307C5.05769 5.28846 5 5.43589 5 5.61537V18.3846C5 18.5641 5.05769 18.7115 5.17308 18.8269C5.28846 18.9423 5.43589 19 5.61538 19H14.7885C14.968 19 15.1154 18.9423 15.2308 18.8269C15.3462 18.7115 15.4038 18.5641 15.4038 18.3846V15.2692H16.4038V18.3846C16.4038 18.8321 16.2465 19.2132 15.9317 19.5279C15.617 19.8426 15.2359 20 14.7885 20H5.61538C5.16794 20 4.78685 19.8426 4.4721 19.5279C4.15737 19.2132 4 18.8321 4 18.3846V5.61537C4 5.16794 4.15737 4.78685 4.4721 4.4721C4.78685 4.15737 5.16794 4 5.61538 4H14.7885C15.2359 4 15.617 4.15737 15.9317 4.4721C16.2465 4.78685 16.4038 5.16794 16.4038 5.61537V8.73078H15.4038Z" fill="#DC0D0D"/>
</g>
</svg>
