<svg width="33" height="32" viewBox="0 0 33 32" fill="none" xmlns="http://www.w3.org/2000/svg">
<mask id="mask0_96_10046" style="mask-type:alpha" maskUnits="userSpaceOnUse" x="0" y="0" width="33" height="32">
<rect x="0.25" width="32" height="32" fill="#D9D9D9"/>
</mask>
<g mask="url(#mask0_96_10046)">
<path d="M16.2546 15.641C16.8482 15.641 17.3548 15.4297 17.7745 15.007C18.1941 14.5843 18.4039 14.0762 18.4039 13.4826C18.4039 12.8891 18.1926 12.3825 17.7699 11.9628C17.3473 11.5432 16.8391 11.3333 16.2456 11.3333C15.652 11.3333 15.1454 11.5447 14.7257 11.9674C14.3061 12.39 14.0963 12.8982 14.0963 13.4917C14.0963 14.0853 14.3076 14.5919 14.7303 15.0115C15.153 15.4312 15.6611 15.641 16.2546 15.641ZM16.2501 26.2359C18.7561 24.0547 20.7373 21.8363 22.1937 19.5808C23.6501 17.3252 24.3783 15.3744 24.3783 13.7282C24.3783 11.2889 23.6061 9.27564 22.0616 7.68847C20.5172 6.10129 18.58 5.3077 16.2501 5.3077C13.9202 5.3077 11.983 6.10129 10.4386 7.68847C8.89413 9.27564 8.12191 11.2889 8.12191 13.7282C8.12191 15.3744 8.85011 17.3252 10.3065 19.5808C11.7629 21.8363 13.7441 24.0547 16.2501 26.2359ZM16.2501 28.0256C13.1168 25.2547 10.7565 22.6705 9.16934 20.2731C7.58216 17.8756 6.78857 15.694 6.78857 13.7282C6.78857 10.9077 7.70695 8.58119 9.54371 6.7487C11.3804 4.91623 13.6159 4 16.2501 4C18.8843 4 21.1198 4.91623 22.9565 6.7487C24.7933 8.58119 25.7116 10.9077 25.7116 13.7282C25.7116 15.694 24.9181 17.8756 23.3309 20.2731C21.7437 22.6705 19.3834 25.2547 16.2501 28.0256Z" fill="#2EA1D9"/>
</g>
</svg>
