<svg width="33" height="32" viewBox="0 0 33 32" fill="none" xmlns="http://www.w3.org/2000/svg">
<mask id="mask0_669_10495" style="mask-type:alpha" maskUnits="userSpaceOnUse" x="0" y="0" width="33" height="32">
<rect x="0.25" width="32" height="32" fill="#D9D9D9"/>
</mask>
<g mask="url(#mask0_669_10495)">
<path d="M16.2545 15.641C16.8481 15.641 17.3547 15.4297 17.7744 15.007C18.194 14.5843 18.4038 14.0762 18.4038 13.4826C18.4038 12.8891 18.1925 12.3825 17.7698 11.9628C17.3471 11.5432 16.839 11.3333 16.2455 11.3333C15.6519 11.3333 15.1453 11.5447 14.7256 11.9674C14.306 12.39 14.0962 12.8982 14.0962 13.4917C14.0962 14.0853 14.3075 14.5919 14.7302 15.0115C15.1528 15.4312 15.661 15.641 16.2545 15.641ZM16.25 26.2359C18.756 24.0547 20.7372 21.8363 22.1936 19.5808C23.65 17.3252 24.3782 15.3744 24.3782 13.7282C24.3782 11.2889 23.606 9.27564 22.0615 7.68847C20.5171 6.10129 18.5799 5.3077 16.25 5.3077C13.9201 5.3077 11.9829 6.10129 10.4385 7.68847C8.89401 9.27564 8.12179 11.2889 8.12179 13.7282C8.12179 15.3744 8.84998 17.3252 10.3064 19.5808C11.7628 21.8363 13.744 24.0547 16.25 26.2359ZM16.25 28.0256C13.1167 25.2547 10.7564 22.6705 9.16922 20.2731C7.58204 17.8756 6.78845 15.694 6.78845 13.7282C6.78845 10.9077 7.70683 8.58119 9.54359 6.7487C11.3803 4.91623 13.6158 4 16.25 4C18.8842 4 21.1197 4.91623 22.9564 6.7487C24.7931 8.58119 25.7115 10.9077 25.7115 13.7282C25.7115 15.694 24.9179 17.8756 23.3308 20.2731C21.7436 22.6705 19.3833 25.2547 16.25 28.0256Z" fill="#A8A8A8"/>
</g>
</svg>
