<svg width="33" height="32" viewBox="0 0 33 32" fill="none" xmlns="http://www.w3.org/2000/svg">
<path d="M29.3798 13.92L28.0732 19.4933C26.9532 24.3067 24.7398 26.2533 20.5798 25.8533C19.9132 25.8 19.1932 25.68 18.4198 25.4933L16.1798 24.96C10.6198 23.64 8.89983 20.8933 10.2065 15.32L11.5132 9.73332C11.7798 8.59999 12.0998 7.61332 12.4998 6.79999C14.0598 3.57332 16.7132 2.70666 21.1665 3.75999L23.3932 4.27999C28.9798 5.58666 30.6865 8.34666 29.3798 13.92Z" stroke="#2EA1D9" stroke-width="1.5" stroke-linecap="round" stroke-linejoin="round"/>
<path d="M20.5802 25.8533C19.7535 26.4133 18.7135 26.88 17.4469 27.2933L15.3402 27.9867C10.0469 29.6933 7.26021 28.2667 5.54021 22.9733L3.83354 17.7067C2.12688 12.4133 3.54021 9.61332 8.83354 7.90665L10.9402 7.21332C11.4869 7.03999 12.0069 6.89332 12.5002 6.79999C12.1002 7.61332 11.7802 8.59999 11.5135 9.73332L10.2069 15.32C8.90021 20.8933 10.6202 23.64 16.1802 24.96L18.4202 25.4933C19.1935 25.68 19.9135 25.8 20.5802 25.8533Z" stroke="#2EA1D9" stroke-width="1.5" stroke-linecap="round" stroke-linejoin="round"/>
<path d="M17.3533 11.3734L23.8199 13.0134" stroke="#2EA1D9" stroke-width="1.5" stroke-linecap="round" stroke-linejoin="round"/>
<path d="M16.0466 16.5333L19.9133 17.52" stroke="#2EA1D9" stroke-width="1.5" stroke-linecap="round" stroke-linejoin="round"/>
</svg>
