<svg width="33" height="32" viewBox="0 0 33 32" fill="none" xmlns="http://www.w3.org/2000/svg">
<path d="M29.38 13.9199L28.0733 19.4933C26.9533 24.3066 24.74 26.2533 20.58 25.8533C19.9133 25.7999 19.1933 25.6799 18.42 25.4933L16.18 24.9599C10.62 23.6399 8.89995 20.8933 10.2066 15.3199L11.5133 9.73326C11.78 8.59993 12.1 7.61326 12.5 6.79993C14.06 3.57326 16.7133 2.7066 21.1666 3.75993L23.3933 4.27993C28.98 5.5866 30.6866 8.3466 29.38 13.9199Z" stroke="#A8A8A8" stroke-width="1.5" stroke-linecap="round" stroke-linejoin="round"/>
<path d="M20.5801 25.8534C19.7534 26.4134 18.7134 26.88 17.4468 27.2934L15.3401 27.9867C10.0468 29.6934 7.26009 28.2667 5.54009 22.9734L3.83342 17.7067C2.12676 12.4134 3.54009 9.61338 8.83342 7.90672L10.9401 7.21338C11.4868 7.04005 12.0068 6.89338 12.5001 6.80005C12.1001 7.61338 11.7801 8.60005 11.5134 9.73338L10.2068 15.32C8.90009 20.8934 10.6201 23.64 16.1801 24.96L18.4201 25.4934C19.1934 25.6801 19.9134 25.8 20.5801 25.8534Z" stroke="#A8A8A8" stroke-width="1.5" stroke-linecap="round" stroke-linejoin="round"/>
<path d="M17.3531 11.3733L23.8198 13.0133" stroke="#A8A8A8" stroke-width="1.5" stroke-linecap="round" stroke-linejoin="round"/>
<path d="M16.0465 16.5334L19.9132 17.5201" stroke="#A8A8A8" stroke-width="1.5" stroke-linecap="round" stroke-linejoin="round"/>
</svg>
