<svg width="72" height="56" viewBox="0 0 72 56" fill="none" xmlns="http://www.w3.org/2000/svg">
<mask id="mask0_677_5346" style="mask-type:alpha" maskUnits="userSpaceOnUse" x="20" y="0" width="32" height="32">
<rect x="20" width="32" height="32" fill="#D9D9D9"/>
</mask>
<g mask="url(#mask0_677_5346)">
<path d="M28.2615 23.3128C29.3949 22.4974 30.5974 21.8526 31.8692 21.3782C33.141 20.9038 34.518 20.6667 36 20.6667C37.482 20.6667 38.859 20.9038 40.1308 21.3782C41.4026 21.8526 42.6051 22.4974 43.7385 23.3128C44.6188 22.4017 45.3269 21.3256 45.8628 20.0846C46.3987 18.8436 46.6667 17.482 46.6667 16C46.6667 13.0444 45.6278 10.5278 43.55 8.45C41.4722 6.37222 38.9556 5.33333 36 5.33333C33.0444 5.33333 30.5278 6.37222 28.45 8.45C26.3722 10.5278 25.3333 13.0444 25.3333 16C25.3333 17.482 25.6013 18.8436 26.1372 20.0846C26.6731 21.3256 27.3812 22.4017 28.2615 23.3128ZM36.0008 16.6667C34.8772 16.6667 33.9295 16.281 33.1577 15.5098C32.3859 14.7385 32 13.791 32 12.6674C32 11.5438 32.3856 10.5961 33.1569 9.82437C33.9282 9.05257 34.8756 8.66667 35.9992 8.66667C37.1228 8.66667 38.0705 9.05231 38.8423 9.8236C39.6141 10.5949 40 11.5423 40 12.6659C40 13.7895 39.6144 14.7372 38.8431 15.509C38.0718 16.2808 37.1244 16.6667 36.0008 16.6667ZM36 28C34.3265 28 32.7598 27.6885 31.3 27.0654C29.8402 26.4423 28.5701 25.5906 27.4897 24.5103C26.4094 23.4299 25.5577 22.1598 24.9346 20.7C24.3115 19.2402 24 17.6735 24 16C24 14.3265 24.3115 12.7598 24.9346 11.3C25.5577 9.84018 26.4094 8.57009 27.4897 7.48973C28.5701 6.4094 29.8402 5.55769 31.3 4.9346C32.7598 4.31153 34.3265 4 36 4C37.6735 4 39.2402 4.31153 40.7 4.9346C42.1598 5.55769 43.4299 6.4094 44.5103 7.48973C45.5906 8.57009 46.4423 9.84018 47.0654 11.3C47.6885 12.7598 48 14.3265 48 16C48 17.6735 47.6885 19.2402 47.0654 20.7C46.4423 22.1598 45.5906 23.4299 44.5103 24.5103C43.4299 25.5906 42.1598 26.4423 40.7 27.0654C39.2402 27.6885 37.6735 28 36 28ZM36 26.6667C37.2291 26.6667 38.4385 26.4517 39.6282 26.0218C40.818 25.5919 41.8462 25.0034 42.7128 24.2564C41.8462 23.5607 40.8436 23.0107 39.7051 22.6064C38.5667 22.2021 37.3316 22 36 22C34.6684 22 33.4291 22.1979 32.2821 22.5936C31.135 22.9893 30.1367 23.5436 29.2872 24.2564C30.1538 25.0034 31.182 25.5919 32.3718 26.0218C33.5615 26.4517 34.7709 26.6667 36 26.6667ZM36 15.3333C36.7487 15.3333 37.3803 15.0761 37.8949 14.5615C38.4094 14.047 38.6667 13.4154 38.6667 12.6667C38.6667 11.918 38.4094 11.2863 37.8949 10.7718C37.3803 10.2573 36.7487 10 36 10C35.2513 10 34.6197 10.2573 34.1051 10.7718C33.5906 11.2863 33.3333 11.918 33.3333 12.6667C33.3333 13.4154 33.5906 14.047 34.1051 14.5615C34.6197 15.0761 35.2513 15.3333 36 15.3333Z" fill="#2EA1D9"/>
</g>
<g filter="url(#filter0_d_677_5346)">
<path d="M23 36H49C49 37.1046 48.1046 38 47 38H25C23.8954 38 23 37.1046 23 36Z" fill="#2EA1D9"/>
</g>
<defs>
<filter id="filter0_d_677_5346" x="0" y="8" width="72" height="48" filterUnits="userSpaceOnUse" color-interpolation-filters="sRGB">
<feFlood flood-opacity="0" result="BackgroundImageFix"/>
<feColorMatrix in="SourceAlpha" type="matrix" values="0 0 0 0 0 0 0 0 0 0 0 0 0 0 0 0 0 0 127 0" result="hardAlpha"/>
<feMorphology radius="3" operator="dilate" in="SourceAlpha" result="effect1_dropShadow_677_5346"/>
<feOffset dy="-5"/>
<feGaussianBlur stdDeviation="10"/>
<feComposite in2="hardAlpha" operator="out"/>
<feColorMatrix type="matrix" values="0 0 0 0 0 0 0 0 0 0.423529 0 0 0 0 1 0 0 0 0.5 0"/>
<feBlend mode="normal" in2="BackgroundImageFix" result="effect1_dropShadow_677_5346"/>
<feBlend mode="normal" in="SourceGraphic" in2="effect1_dropShadow_677_5346" result="shape"/>
</filter>
</defs>
</svg>
