<svg width="32" height="32" viewBox="0 0 32 32" fill="none" xmlns="http://www.w3.org/2000/svg">
<mask id="mask0_669_10498" style="mask-type:alpha" maskUnits="userSpaceOnUse" x="0" y="0" width="32" height="32">
<rect width="32" height="32" fill="#D9D9D9"/>
</mask>
<g mask="url(#mask0_669_10498)">
<path d="M8.26153 23.3128C9.39487 22.4974 10.5974 21.8526 11.8692 21.3782C13.141 20.9038 14.518 20.6667 16 20.6667C17.482 20.6667 18.859 20.9038 20.1308 21.3782C21.4026 21.8526 22.6051 22.4974 23.7385 23.3128C24.6188 22.4017 25.3269 21.3256 25.8628 20.0846C26.3987 18.8436 26.6667 17.482 26.6667 16C26.6667 13.0444 25.6278 10.5278 23.55 8.45C21.4722 6.37222 18.9556 5.33333 16 5.33333C13.0444 5.33333 10.5278 6.37222 8.45 8.45C6.37222 10.5278 5.33333 13.0444 5.33333 16C5.33333 17.482 5.60128 18.8436 6.13717 20.0846C6.67308 21.3256 7.3812 22.4017 8.26153 23.3128ZM16.0008 16.6667C14.8772 16.6667 13.9295 16.281 13.1577 15.5098C12.3859 14.7385 12 13.791 12 12.6674C12 11.5438 12.3856 10.5961 13.1569 9.82437C13.9282 9.05257 14.8756 8.66667 15.9992 8.66667C17.1228 8.66667 18.0705 9.05231 18.8423 9.8236C19.6141 10.5949 20 11.5423 20 12.6659C20 13.7895 19.6144 14.7372 18.8431 15.509C18.0718 16.2808 17.1244 16.6667 16.0008 16.6667ZM16 28C14.3265 28 12.7598 27.6885 11.3 27.0654C9.84018 26.4423 8.57009 25.5906 7.48973 24.5103C6.4094 23.4299 5.55769 22.1598 4.9346 20.7C4.31153 19.2402 4 17.6735 4 16C4 14.3265 4.31153 12.7598 4.9346 11.3C5.55769 9.84018 6.4094 8.57009 7.48973 7.48973C8.57009 6.4094 9.84018 5.55769 11.3 4.9346C12.7598 4.31153 14.3265 4 16 4C17.6735 4 19.2402 4.31153 20.7 4.9346C22.1598 5.55769 23.4299 6.4094 24.5103 7.48973C25.5906 8.57009 26.4423 9.84018 27.0654 11.3C27.6885 12.7598 28 14.3265 28 16C28 17.6735 27.6885 19.2402 27.0654 20.7C26.4423 22.1598 25.5906 23.4299 24.5103 24.5103C23.4299 25.5906 22.1598 26.4423 20.7 27.0654C19.2402 27.6885 17.6735 28 16 28ZM16 26.6667C17.2291 26.6667 18.4385 26.4517 19.6282 26.0218C20.818 25.5919 21.8462 25.0034 22.7128 24.2564C21.8462 23.5607 20.8436 23.0107 19.7051 22.6064C18.5667 22.2021 17.3316 22 16 22C14.6684 22 13.4291 22.1979 12.2821 22.5936C11.135 22.9893 10.1367 23.5436 9.28717 24.2564C10.1538 25.0034 11.182 25.5919 12.3718 26.0218C13.5615 26.4517 14.7709 26.6667 16 26.6667ZM16 15.3333C16.7487 15.3333 17.3803 15.0761 17.8949 14.5615C18.4094 14.047 18.6667 13.4154 18.6667 12.6667C18.6667 11.918 18.4094 11.2863 17.8949 10.7718C17.3803 10.2573 16.7487 10 16 10C15.2513 10 14.6197 10.2573 14.1051 10.7718C13.5906 11.2863 13.3333 11.918 13.3333 12.6667C13.3333 13.4154 13.5906 14.047 14.1051 14.5615C14.6197 15.0761 15.2513 15.3333 16 15.3333Z" fill="#A8A8A8"/>
</g>
</svg>
