<svg width="24" height="24" viewBox="0 0 24 24" fill="none" xmlns="http://www.w3.org/2000/svg">
<g id="Icon">
<mask id="mask0_350_14018" style="mask-type:alpha" maskUnits="userSpaceOnUse" x="0" y="0" width="24" height="24">
<rect id="Bounding box" width="24" height="24" fill="#D9D9D9"/>
</mask>
<g mask="url(#mask0_350_14018)">
<path id="scale" d="M3.76929 20.2308C3.82057 18.9578 4.02794 17.8401 4.39139 16.8779C4.75485 15.9158 5.23659 15.0879 5.83659 14.3943C6.43659 13.7007 7.13467 13.1421 7.93084 12.7183C8.72699 12.2946 9.5834 11.9911 10.5001 11.8077V8.82699C8.30646 8.5821 6.67794 7.9837 5.61449 7.03179C4.55102 6.07987 3.94877 4.99237 3.80774 3.76929H20.1924C20.0385 4.99237 19.4331 6.07987 18.376 7.03179C17.319 7.9837 15.6937 8.5821 13.5001 8.82699V11.8077C14.4167 11.9911 15.2731 12.2946 16.0693 12.7183C16.8655 13.1421 17.5635 13.7007 18.1635 14.3943C18.7635 15.0879 19.2453 15.9158 19.6087 16.8779C19.9722 17.8401 20.1796 18.9578 20.2308 20.2308H15.5001V19.2308H19.202C18.8635 16.9026 18.001 15.2296 16.6145 14.2116C15.228 13.1937 13.6898 12.6847 12.0001 12.6847C10.3103 12.6847 8.77217 13.1937 7.38564 14.2116C5.9991 15.2296 5.1366 16.9026 4.79814 19.2308H8.50006V20.2308H3.76929ZM12.0001 7.89429C14.1065 7.89429 15.684 7.5491 16.7327 6.85871C17.7815 6.16833 18.4507 5.47185 18.7404 4.76929H5.25969C5.5366 5.47185 6.20263 6.16833 7.25776 6.85871C8.3129 7.5491 9.89366 7.89429 12.0001 7.89429ZM12.0001 20.2308C11.5783 20.2308 11.2228 20.0863 10.9337 19.7972C10.6446 19.5081 10.5001 19.1526 10.5001 18.7308C10.5001 18.5244 10.5382 18.3334 10.6145 18.1578C10.6908 17.9821 10.8013 17.8283 10.9462 17.6962C11.218 17.4244 11.768 17.0933 12.5962 16.703C13.4244 16.3126 14.2578 15.9565 15.0962 15.6347C14.7706 16.4219 14.4135 17.2424 14.0251 18.0962C13.6366 18.9501 13.3065 19.5129 13.0347 19.7847C12.9026 19.9296 12.7488 20.0401 12.5731 20.1164C12.3975 20.1927 12.2065 20.2308 12.0001 20.2308Z" fill="white"/>
</g>
</g>
</svg>
