<svg width="24" height="24" viewBox="0 0 24 24" fill="none" xmlns="http://www.w3.org/2000/svg">
<path d="M16.4846 17.1538L10.223 10.8923C9.72302 11.3179 9.14802 11.6474 8.49802 11.8807C7.84802 12.114 7.19481 12.2307 6.53839 12.2307C4.93673 12.2307 3.58118 11.6763 2.47177 10.5675C1.36233 9.45867 0.807617 8.10387 0.807617 6.50307C0.807617 4.90227 1.36203 3.54642 2.47084 2.43551C3.57966 1.32461 4.93447 0.769165 6.53527 0.769165C8.13608 0.769165 9.49193 1.32387 10.6028 2.43329C11.7137 3.54271 12.2692 4.89826 12.2692 6.49994C12.2692 7.19481 12.1461 7.86724 11.8999 8.51724C11.6538 9.16724 11.3307 9.72302 10.9307 10.1846L17.1923 16.4461L16.4846 17.1538ZM6.53839 11.2307C7.86532 11.2307 8.98552 10.774 9.89897 9.86052C10.8124 8.94705 11.2692 7.82686 11.2692 6.49994C11.2692 5.17302 10.8124 4.05283 9.89897 3.13937C8.98552 2.2259 7.86532 1.76917 6.53839 1.76917C5.21147 1.76917 4.09128 2.2259 3.17782 3.13937C2.26437 4.05283 1.80764 5.17302 1.80764 6.49994C1.80764 7.82686 2.26437 8.94705 3.17782 9.86052C4.09128 10.774 5.21147 11.2307 6.53839 11.2307Z" fill="#1C1C1C"/>
</svg>
