<svg width="18" height="18" viewBox="0 0 18 18" fill="none" xmlns="http://www.w3.org/2000/svg">
<path d="M16.4846 17.1537L10.223 10.8921C9.72302 11.3178 9.14802 11.6473 8.49802 11.8806C7.84802 12.1139 7.19481 12.2306 6.53839 12.2306C4.93673 12.2306 3.58118 11.6762 2.47177 10.5674C1.36233 9.45855 0.807617 8.10374 0.807617 6.50294C0.807617 4.90214 1.36203 3.54629 2.47084 2.43539C3.57966 1.32449 4.93447 0.769043 6.53527 0.769043C8.13608 0.769043 9.49193 1.32375 10.6028 2.43317C11.7137 3.54258 12.2692 4.89814 12.2692 6.49982C12.2692 7.19469 12.1461 7.86712 11.8999 8.51712C11.6538 9.16712 11.3307 9.72289 10.9307 10.1844L17.1923 16.446L16.4846 17.1537ZM6.53839 11.2306C7.86532 11.2306 8.98552 10.7739 9.89897 9.86039C10.8124 8.94693 11.2692 7.82674 11.2692 6.49982C11.2692 5.1729 10.8124 4.05271 9.89897 3.13924C8.98552 2.22578 7.86532 1.76904 6.53839 1.76904C5.21147 1.76904 4.09128 2.22578 3.17782 3.13924C2.26437 4.05271 1.80764 5.1729 1.80764 6.49982C1.80764 7.82674 2.26437 8.94693 3.17782 9.86039C4.09128 10.7739 5.21147 11.2306 6.53839 11.2306Z" fill="#1C1C1C"/>
</svg>
