<svg width="24" height="24" viewBox="0 0 24 24" fill="none" xmlns="http://www.w3.org/2000/svg">
<g id="Icon">
<mask id="mask0_1177_12306" style="mask-type:alpha" maskUnits="userSpaceOnUse" x="0" y="0" width="24" height="24">
<rect id="Bounding box" width="24" height="24" fill="#D9D9D9"/>
</mask>
<g mask="url(#mask0_1177_12306)">
<path id="shoppingmode" d="M11.8635 20.7077C11.6686 20.9026 11.4308 21 11.15 21C10.8692 21 10.6314 20.9026 10.4365 20.7077L3.28651 13.5577C3.0955 13.3667 3.00319 13.1266 3.00959 12.8375C3.01601 12.5484 3.12114 12.3019 3.32499 12.0981L12.125 3.2923C12.2189 3.20298 12.3299 3.13193 12.4579 3.07915C12.586 3.02638 12.7147 3 12.8442 3H19.9942C20.2622 3 20.4958 3.09967 20.6952 3.29902C20.8945 3.49839 20.9942 3.73205 20.9942 4V11.15C20.9942 11.2942 20.9657 11.43 20.9086 11.5572C20.8516 11.6845 20.7699 11.8013 20.6635 11.9077L11.8635 20.7077ZM17.492 7.5C17.7691 7.5 18.0054 7.403 18.201 7.209C18.3965 7.01498 18.4942 6.77941 18.4942 6.50228C18.4942 6.22511 18.3972 5.98878 18.2032 5.79328C18.0092 5.59776 17.7736 5.5 17.4965 5.5C17.2193 5.5 16.983 5.597 16.7875 5.791C16.592 5.98502 16.4942 6.22059 16.4942 6.49773C16.4942 6.77489 16.5912 7.01122 16.7852 7.20672C16.9792 7.40224 17.2148 7.5 17.492 7.5ZM11.1586 20L19.9942 11.15V4H12.8356L3.99999 12.85L11.1586 20Z" fill="#1C1C1C"/>
</g>
</g>
</svg>
